<svg xmlns="http://www.w3.org/2000/svg" xmlns:xlink="http://www.w3.org/1999/xlink" viewBox="0 0 62 62"><defs><clipPath id="4c3ced98-1a8c-4186-8464-e8fc3ef04d97"><rect width="62" height="62" style="fill:none"/></clipPath></defs><title>advantage-2</title><g id="44fbb15f-17ed-4aad-b7ae-a89822fd164a" data-name="Layer 2"><g id="e9a1fbdc-5eb7-4e4d-935c-a2052a22c914" data-name="Layer 1"><path d="M48,22H14V34H48ZM46,32H16V24H46Z" style="fill:#28245d"/><path d="M58,27h2V43H58Zm-4-4v2h2v2H54v2h2V41H54v2h2v3H54v2h4V45h4V25H58V23Z" style="fill:#28245d"/><path d="M2,27H4V43H2Zm2-4v2H0V45H4v3H8V46H6V43H8V41H6V29H8V27H6V25H8V23Z" style="fill:#28245d"/><path d="M30,58H48V48H30Zm2-8H46v6H32Z" style="fill:#28245d"/><rect x="38" y="52" width="2" height="2" style="fill:#28245d"/><rect x="42" y="52" width="2" height="2" style="fill:#28245d"/><rect x="34" y="52" width="2" height="2" style="fill:#28245d"/><path d="M28,37H14V51H28Zm-2,4H24V39h2Zm-6,2h2v2H20Zm2,6H20V47h2Zm-4-4H16V43h2Zm2-6h2v2H20Zm4,4h2v2H24Zm-6-2H16V39h2Zm-2,6h2v2H16Zm8,0h2v2H24Z" style="fill:#28245d"/><rect x="32" y="38" width="2" height="2" style="fill:#28245d"/><rect x="38" y="38" width="2" height="2" style="fill:#28245d"/><rect x="44" y="38" width="2" height="2" style="fill:#28245d"/><rect x="32" y="44" width="2" height="2" style="fill:#28245d"/><rect x="38" y="44" width="2" height="2" style="fill:#28245d"/><rect x="44" y="44" width="2" height="2" style="fill:#28245d"/><g style="clip-path:url(#4c3ced98-1a8c-4186-8464-e8fc3ef04d97)"><path d="M31,31a3,3,0,1,0-3-3,3,3,0,0,0,3,3m0-4a1,1,0,1,1-1,1,1,1,0,0,1,1-1" style="fill:#28245d"/><path d="M22,31a3,3,0,1,0-3-3,3,3,0,0,0,3,3m0-4a1,1,0,1,1-1,1,1,1,0,0,1,1-1" style="fill:#28245d"/><path d="M40,31a3,3,0,1,0-3-3,3,3,0,0,0,3,3m0-4a1,1,0,1,1-1,1,1,1,0,0,1,1-1" style="fill:#28245d"/><path d="M44,11.19a6,6,0,1,0-6,0V18H31V14H26V2a2,2,0,0,0-2-2H20a2,2,0,0,0-2,2V14H13v4H10V62H52V18H44ZM41,2a4,4,0,1,1-4,4,4,4,0,0,1,4-4m-1,9.91a5.6,5.6,0,0,0,2,0V18H40ZM24,8H20V6h4Zm0-4H20V2h4Zm-4,6h4v4H20Zm-5,6H29v2H15ZM50,60H12V20H50Z" style="fill:#28245d"/></g></g></g></svg>