<svg xmlns="http://www.w3.org/2000/svg" xmlns:xlink="http://www.w3.org/1999/xlink" viewBox="0 0 90.01 90.01"><defs><clipPath id="f708d93c-b6b8-4532-8314-965d757f264a" transform="translate(0 0)"><rect width="90.01" height="90.01" style="fill:none"/></clipPath></defs><title>advantage-6</title><g id="a61ceacc-c089-4a7b-aea9-7b22f484df77" data-name="Layer 2"><g id="63fc71cc-aa0f-470c-bfee-6d14d1df6c6f" data-name="Layer 1"><g style="clip-path:url(#f708d93c-b6b8-4532-8314-965d757f264a)"><path d="M29.74,56.91a2,2,0,0,0,1.41-.59l2.92-2.92a2,2,0,0,0-2.83-2.83l-2.92,2.92a2,2,0,0,0,1.41,3.41" transform="translate(0 0)" style="fill:#28245d"/><path d="M26.64,58a2,2,0,0,0-2.83,0L7.54,74.28a2,2,0,1,0,2.83,2.83L26.64,60.84a2,2,0,0,0,0-2.83" transform="translate(0 0)" style="fill:#28245d"/><path d="M36.61,55.93,22.47,70.07A2,2,0,1,0,25.3,72.9L39.44,58.76a2,2,0,1,0-2.83-2.83" transform="translate(0 0)" style="fill:#28245d"/><path d="M17.32,75.22,12.9,79.64a2,2,0,0,0,2.83,2.83L20.15,78a2,2,0,0,0-2.83-2.83" transform="translate(0 0)" style="fill:#28245d"/><path d="M15.07,18.54a2.87,2.87,0,0,1-4,0L4.22,11.72l0,0L4,11.54l-.15-.11-.17-.09-.2-.09-.06,0-.11,0-.21,0-.18,0h-.2l-.18,0-.21,0-.16,0L2,11.33l-.15.08-.18.11-.15.12-.1.08,0,.05-.13.16-.11.16L1,12.26c0,.07-.06.13-.09.2l0,.06A18,18,0,0,0,23.62,35.34L31,42.71a5.73,5.73,0,0,0-3.44,1.63L3.27,68.64a8.57,8.57,0,0,0,0,12.1l6,6a8.57,8.57,0,0,0,12.1,0L45.67,62.45A5.73,5.73,0,0,0,47.3,59l7.37,7.37A18.07,18.07,0,0,0,77.5,89.11l.06,0,.19-.09.17-.09.15-.11.17-.14,0,0,.07-.08.14-.17.1-.16a1.69,1.69,0,0,0,.09-.17,1.63,1.63,0,0,0,.07-.18,1.8,1.8,0,0,0,.06-.19,1.63,1.63,0,0,0,0-.18c0-.07,0-.13,0-.2a1.51,1.51,0,0,0,0-.19q0-.1,0-.19c0-.07,0-.14,0-.21a.9.9,0,0,0,0-.11l0-.06c0-.07-.06-.13-.09-.19l-.09-.17L78.47,86l-.14-.17,0,0L71.48,79a2.87,2.87,0,0,1,0-4l3.42-3.42a2.87,2.87,0,0,1,4,0l6.81,6.81,0,0,.17.14.15.11.16.09.2.09.06,0h.06a2,2,0,0,0,.56.09h0a2,2,0,0,0,.54-.08l.11,0a1.93,1.93,0,0,0,.48-.24l.08-.06a2.07,2.07,0,0,0,.2-.17,1.92,1.92,0,0,0,.14-.17l.08-.09a2.06,2.06,0,0,0,.26-.5l0,0A18.08,18.08,0,0,0,66.33,54.71l-12-12L76.14,20.89l4.5.31h.14a2,2,0,0,0,1.75-1l7.22-13a2,2,0,0,0-.33-2.38l-.48-.49h0L85.73,1.07h0L85.24.59A2,2,0,0,0,82.86.25l-13,7.22a2,2,0,0,0-1,1.89l.32,4.5L47.31,35.69l-12-12A18.08,18.08,0,0,0,12.47,1l-.06,0-.2.09L12,1.15l-.15.11-.17.14,0,0-.07.09-.14.17-.1.16L11.28,2l-.07.18q0,.09-.05.18a1.68,1.68,0,0,0,0,.19,1.39,1.39,0,0,0,0,.19,1.79,1.79,0,0,0,0,.19c0,.06,0,.13,0,.19s0,.14,0,.21,0,.07,0,.11l0,.06a2,2,0,0,0,.09.19,1.72,1.72,0,0,0,.09.17l.1.14.14.18,0,0,6.81,6.81a2.87,2.87,0,0,1,0,4ZM42.84,59.62,18.55,83.92a4.56,4.56,0,0,1-6.44,0l-6-6a4.56,4.56,0,0,1,0-6.44L30.39,47.17a1.79,1.79,0,0,1,2.53,0l1.61,1.61A2,2,0,0,0,37.36,46l-.29-.29,1.31-1.31a1.42,1.42,0,0,1,2,0l.54.54h0l4.19,4.19.54.54a1.42,1.42,0,0,1,0,2l-1.3,1.3L42,50.64a2,2,0,0,0-2.83,2.83l3.62,3.62a1.8,1.8,0,0,1,0,2.53m21.57-1.18h0a1.82,1.82,0,0,0,.19.15l.11.08a2,2,0,0,0,1.12.35,2,2,0,0,0,.8-.17,14.08,14.08,0,0,1,19.3,14L81.76,68.7a6.87,6.87,0,0,0-9.7,0l-3.42,3.41a6.87,6.87,0,0,0,0,9.7L72.81,86a14.08,14.08,0,0,1-14-19.25,2,2,0,0,0,.53-.37L61,64.64a2,2,0,1,0-2.84-2.82L57,63,48.44,54.5l0,0a5.41,5.41,0,0,0,.76-6.67l2.25-2.25Zm19.07-54,2.05,2.05L79.65,17.12l-4.15-.29h-.25l-.22,0-.12,0-.27.08-.08,0-.27.14-.06,0a2,2,0,0,0-.26.21h0L46.52,44.85l-1.36-1.36L72.6,16.05l0,0a2.06,2.06,0,0,0,.19-.23l.06-.09a2.38,2.38,0,0,0,.12-.24l.05-.12a2.15,2.15,0,0,0,.07-.23c0-.05,0-.1,0-.15a2,2,0,0,0,0-.21c0-.07,0-.13,0-.2s0,0,0-.07l-.29-4.15ZM21.31,8.25,17.15,4.09A14.07,14.07,0,0,1,31.23,23.17a2,2,0,0,0-.27.22l-1.7,1.71a2,2,0,1,0,2.84,2.82L33,27,44.48,38.52l-2.25,2.25a5.42,5.42,0,0,0-6.68.77l0,0L25.6,31.65a2,2,0,0,0-2.2-.47A14.08,14.08,0,0,1,4,17.2L8.2,21.36a6.87,6.87,0,0,0,9.7,0l3.41-3.42a6.87,6.87,0,0,0,0-9.7" transform="translate(0 0)" style="fill:#28245d"/></g></g></g></svg>