<svg xmlns="http://www.w3.org/2000/svg" xmlns:xlink="http://www.w3.org/1999/xlink" viewBox="0 0 432.67 468"><defs><clipPath id="5d204c9b-34d7-4a65-83bb-abd37c56b839" transform="translate(0 0)"><rect width="432.67" height="468" style="fill:none"/></clipPath></defs><title>advantage-3</title><g id="94f2efd1-6274-4f82-ba2f-cefbe8d4b23f" data-name="Layer 2"><g id="9f1cfce7-5330-4333-9a0f-9afba650e436" data-name="Layer 1"><g style="clip-path:url(#5d204c9b-34d7-4a65-83bb-abd37c56b839)"><path d="M62.61,185.74a40,40,0,0,0-40,40v83.14a40,40,0,0,0,40,40h99.77a40,40,0,0,0,40-40V225.74a40,40,0,0,0-40-40Zm43.58,20h17.93v33.09L106.19,253Zm76.19,20v83.14a20,20,0,0,1-20,20H62.61a20,20,0,0,1-20-20V225.74a20,20,0,0,1,20-20H86.19v67.93a10,10,0,0,0,16.2,7.84l37.93-30a10,10,0,0,0,3.8-7.84V205.74h18.26a20,20,0,0,1,20,20" transform="translate(0 0)" style="fill:#28245d"/><path d="M270.3,348.88H375.39a40,40,0,0,0,40-40V225.74a40,40,0,0,0-40-40H270.3a40,40,0,0,0-40,40v83.14a40,40,0,0,0,40,40m43.58-143.14h23.26v32.7l-23.26,16.13Zm-63.58,20a20,20,0,0,1,20-20h23.58v67.93a10,10,0,0,0,15.7,8.22l43.26-30a10,10,0,0,0,4.3-8.22V205.74h18.26a20,20,0,0,1,20,20v83.14a20,20,0,0,1-20,20H270.3a20,20,0,0,1-20-20Z" transform="translate(0 0)" style="fill:#28245d"/><path d="M308.88,123.14V40a40,40,0,0,0-40-40H163.79a40,40,0,0,0-40,40v83.14a40,40,0,0,0,40,40H268.88a40,40,0,0,0,40-40M202,20H225.3V49.7L202,65.83ZM143.79,123.14V40a20,20,0,0,1,20-20H182V84.93a10,10,0,0,0,15.7,8.22l43.25-30a10,10,0,0,0,4.3-8.22V20h23.58a20,20,0,0,1,20,20v83.14a20,20,0,0,1-20,20H163.79a20,20,0,0,1-20-20" transform="translate(0 0)" style="fill:#28245d"/><path d="M10,448a10,10,0,0,0,0,20H422.67a10,10,0,1,0,0-20H363.44V391.49h59.23a10,10,0,0,0,0-20H10a10,10,0,0,0,0,20H63.91V448Zm73.91-56.51H343.44V448H83.91Z" transform="translate(0 0)" style="fill:#28245d"/></g></g></g></svg>