<svg xmlns="http://www.w3.org/2000/svg" viewBox="0 0 68 68"><title>advantage-1</title><g id="7520dbe4-d0e5-4112-b89b-40032e837d41" data-name="Layer 2"><g id="a3880888-b0d0-4aec-bdbf-58d0eb32a794" data-name="Слой 1"><path d="M42.5,64.5a3,3,0,0,1-3,3H3.5a3,3,0,0,1-3-3v-36a3,3,0,0,1,3-3h36a3,3,0,0,1,3,3Zm-2,0v-36a1,1,0,0,0-1-1H3.5a1,1,0,0,0-1,1v36a1,1,0,0,0,1,1h36A1,1,0,0,0,40.5,64.5Zm7-45.42,8.29-8.29a1,1,0,0,1,1.41,1.41L48.91,20.5H54.5a1,1,0,0,1,0,2h-8a1,1,0,0,1-1-1v-8a1,1,0,0,1,2,0ZM33.5.5a2,2,0,1,1-2,2A2,2,0,0,1,33.5.5Zm-8,0a2,2,0,1,1-2,2A2,2,0,0,1,25.5.5Zm16,0a2,2,0,1,1-2,2A2,2,0,0,1,41.5.5Zm16,0a2,2,0,1,1-2,2A2,2,0,0,1,57.5.5Zm-8,0a2,2,0,1,1-2,2A2,2,0,0,1,49.5.5Zm8,40a2,2,0,1,1-2,2A2,2,0,0,1,57.5,40.5Zm-8,0a2,2,0,1,1-2,2A2,2,0,0,1,49.5,40.5Zm16,0a2,2,0,1,1-2,2A2,2,0,0,1,65.5,40.5Zm0-16a2,2,0,1,1-2,2A2,2,0,0,1,65.5,24.5Zm0-16a2,2,0,1,1-2,2A2,2,0,0,1,65.5,8.5Zm0,8a2,2,0,1,1-2,2A2,2,0,0,1,65.5,16.5Zm-40-8a2,2,0,1,1-2,2A2,2,0,0,1,25.5,8.5Zm0,8a2,2,0,1,1-2,2A2,2,0,0,1,25.5,16.5Zm40,16a2,2,0,1,1-2,2A2,2,0,0,1,65.5,32.5Zm0-32a2,2,0,1,1-2,2A2,2,0,0,1,65.5.5Z" style="fill:#28245d"/><path d="M39.5,68H3.5A3.5,3.5,0,0,1,0,64.5v-36A3.5,3.5,0,0,1,3.5,25h36A3.5,3.5,0,0,1,43,28.5v36A3.5,3.5,0,0,1,39.5,68ZM3.5,26A2.5,2.5,0,0,0,1,28.5v36A2.5,2.5,0,0,0,3.5,67h36A2.5,2.5,0,0,0,42,64.5v-36A2.5,2.5,0,0,0,39.5,26Zm36,40H3.5A1.5,1.5,0,0,1,2,64.5v-36A1.5,1.5,0,0,1,3.5,27h36A1.5,1.5,0,0,1,41,28.5v36A1.5,1.5,0,0,1,39.5,66ZM3.5,28a.5.5,0,0,0-.5.5v36a.5.5,0,0,0,.5.5h36a.5.5,0,0,0,.5-.5v-36a.5.5,0,0,0-.5-.5Zm62,17A2.5,2.5,0,1,1,68,42.5,2.5,2.5,0,0,1,65.5,45Zm0-4A1.5,1.5,0,1,0,67,42.5,1.5,1.5,0,0,0,65.5,41Zm-8,4A2.5,2.5,0,1,1,60,42.5,2.5,2.5,0,0,1,57.5,45Zm0-4A1.5,1.5,0,1,0,59,42.5,1.5,1.5,0,0,0,57.5,41Zm-8,4A2.5,2.5,0,1,1,52,42.5,2.5,2.5,0,0,1,49.5,45Zm0-4A1.5,1.5,0,1,0,51,42.5,1.5,1.5,0,0,0,49.5,41Zm16-4A2.5,2.5,0,1,1,68,34.5,2.5,2.5,0,0,1,65.5,37Zm0-4A1.5,1.5,0,1,0,67,34.5,1.5,1.5,0,0,0,65.5,33Zm0-4A2.5,2.5,0,1,1,68,26.5,2.5,2.5,0,0,1,65.5,29Zm0-4A1.5,1.5,0,1,0,67,26.5,1.5,1.5,0,0,0,65.5,25Zm-11-2h-8A1.5,1.5,0,0,1,45,21.5v-8a1.5,1.5,0,0,1,3,0v4.38l7.44-7.44a1.5,1.5,0,0,1,2.12,2.12L50.12,20H54.5a1.5,1.5,0,0,1,0,3Zm-8-10a.5.5,0,0,0-.5.5v8a.5.5,0,0,0,.5.5h8a.5.5,0,0,0,0-1H47.71l9.15-9.15a.5.5,0,0,0-.71-.71L47,20.29V13.5A.5.5,0,0,0,46.5,13Zm19,8A2.5,2.5,0,1,1,68,18.5,2.5,2.5,0,0,1,65.5,21Zm0-4A1.5,1.5,0,1,0,67,18.5,1.5,1.5,0,0,0,65.5,17Zm-40,4A2.5,2.5,0,1,1,28,18.5,2.5,2.5,0,0,1,25.5,21Zm0-4A1.5,1.5,0,1,0,27,18.5,1.5,1.5,0,0,0,25.5,17Zm40-4A2.5,2.5,0,1,1,68,10.5,2.5,2.5,0,0,1,65.5,13Zm0-4A1.5,1.5,0,1,0,67,10.5,1.5,1.5,0,0,0,65.5,9Zm-40,4A2.5,2.5,0,1,1,28,10.5,2.5,2.5,0,0,1,25.5,13Zm0-4A1.5,1.5,0,1,0,27,10.5,1.5,1.5,0,0,0,25.5,9Zm40-4A2.5,2.5,0,1,1,68,2.5,2.5,2.5,0,0,1,65.5,5Zm0-4A1.5,1.5,0,1,0,67,2.5,1.5,1.5,0,0,0,65.5,1Zm-8,4A2.5,2.5,0,1,1,60,2.5,2.5,2.5,0,0,1,57.5,5Zm0-4A1.5,1.5,0,1,0,59,2.5,1.5,1.5,0,0,0,57.5,1Zm-8,4A2.5,2.5,0,1,1,52,2.5,2.5,2.5,0,0,1,49.5,5Zm0-4A1.5,1.5,0,1,0,51,2.5,1.5,1.5,0,0,0,49.5,1Zm-8,4A2.5,2.5,0,1,1,44,2.5,2.5,2.5,0,0,1,41.5,5Zm0-4A1.5,1.5,0,1,0,43,2.5,1.5,1.5,0,0,0,41.5,1Zm-8,4A2.5,2.5,0,1,1,36,2.5,2.5,2.5,0,0,1,33.5,5Zm0-4A1.5,1.5,0,1,0,35,2.5,1.5,1.5,0,0,0,33.5,1Zm-8,4A2.5,2.5,0,1,1,28,2.5,2.5,2.5,0,0,1,25.5,5Zm0-4A1.5,1.5,0,1,0,27,2.5,1.5,1.5,0,0,0,25.5,1Z" style="fill:#28245d"/></g></g></svg>