<svg xmlns="http://www.w3.org/2000/svg" xmlns:xlink="http://www.w3.org/1999/xlink" viewBox="0 0 62 62"><defs><clipPath id="cc6d7039-7a4c-4bd6-9171-d20d37ac5a39"><rect width="62" height="62" style="fill:none"/></clipPath></defs><title>selection-10</title><g id="9839e4f8-fe2f-4afc-9998-83e63a450b78" data-name="Layer 2"><g id="4d6fd02e-10e9-4253-a089-5e48ce47f33d" data-name="Layer 1"><g style="clip-path:url(#cc6d7039-7a4c-4bd6-9171-d20d37ac5a39)"><path d="M27,16H25V12H7v4H5a5,5,0,0,0-5,5V60H2v2H4V60H28v2h2V60h2V21a5,5,0,0,0-5-5M9,14H23v2H9ZM30,58H2V21a3,3,0,0,1,3-3H27a3,3,0,0,1,3,3Z" style="fill:#28245d"/><path d="M10,48a3,3,0,1,0,3,3,3,3,0,0,0-3-3m0,4a1,1,0,1,1,1-1,1,1,0,0,1-1,1" style="fill:#28245d"/><path d="M22,48a3,3,0,1,0,3,3,3,3,0,0,0-3-3m0,4a1,1,0,1,1,1-1,1,1,0,0,1-1,1" style="fill:#28245d"/><path d="M4,45H28V27H4Zm8-9H10V34h2Zm2,2V32H12V29h8v5H18v6h2v3H12V38Zm6-2h2v2H20Zm6,7H22V40h2V34H22V29h4ZM6,29h4v3H8v6h2v5H6Z" style="fill:#28245d"/><rect x="5" y="23" width="2" height="2" style="fill:#28245d"/><rect x="15" y="23" width="2" height="2" style="fill:#28245d"/><rect x="25" y="23" width="2" height="2" style="fill:#28245d"/><rect x="20" y="23" width="2" height="2" style="fill:#28245d"/><rect x="10" y="23" width="2" height="2" style="fill:#28245d"/><path d="M34,38v2h5V60H34v2H62V38Zm7,2H53V60H41ZM60,60H55V40h5Z" style="fill:#28245d"/><path d="M40,28h3v8h2V28h4v8h2V28h3V23.19l7-18V0H33V5.19l7,18Zm1.68-6L35.46,6H58.54L52.32,22ZM52,26H42V24H52ZM59,4H35V2H59Z" style="fill:#28245d"/></g></g></g></svg>