<svg xmlns="http://www.w3.org/2000/svg" xmlns:xlink="http://www.w3.org/1999/xlink" viewBox="0 0 46.26 60"><defs><clipPath id="27297492-3b08-489e-b0a3-3af3d89437f8"><rect width="46.26" height="60" style="fill:none"/></clipPath></defs><title>selection-14</title><g id="c6006aed-c1dc-408d-9aa3-beb7c064c625" data-name="Layer 2"><g id="e10275d4-10a8-476c-91a1-eafc2f77aa5e" data-name="Layer 1"><g style="clip-path:url(#27297492-3b08-489e-b0a3-3af3d89437f8)"><path d="M6.5,49a4.5,4.5,0,1,0,0,9h31a4.5,4.5,0,1,0,0-9Zm31,11H6.5a6.5,6.5,0,1,1,0-13h31a6.5,6.5,0,1,1,0,13" style="fill:#28245d"/><path d="M7.5,52A1.5,1.5,0,1,0,9,53.5,1.5,1.5,0,0,0,7.5,52m0,5A3.5,3.5,0,1,1,11,53.5,3.5,3.5,0,0,1,7.5,57" style="fill:#28245d"/><path d="M36.5,52A1.5,1.5,0,1,0,38,53.5,1.5,1.5,0,0,0,36.5,52m0,5A3.5,3.5,0,1,1,40,53.5,3.5,3.5,0,0,1,36.5,57" style="fill:#28245d"/><path d="M18,47h8V46H18Zm9,2H17a1,1,0,0,1-1-1V45a1,1,0,0,1,1-1H27a1,1,0,0,1,1,1v3a1,1,0,0,1-1,1" style="fill:#28245d"/><path d="M2,44H30V33.19A5.19,5.19,0,0,0,24.81,28H17a1,1,0,0,0-1,1v8a1,1,0,0,1-1,1H4.08A2.08,2.08,0,0,0,2,40.08Zm29,2H1a1,1,0,0,1-1-1V40.08A4.08,4.08,0,0,1,4.08,36H14V29a3,3,0,0,1,3-3h7.81A7.19,7.19,0,0,1,32,33.19V45a1,1,0,0,1-1,1" style="fill:#28245d"/><path d="M2,40H6a2,2,0,0,0,2-2H4.08A2.08,2.08,0,0,0,2,40m4,2H1a1,1,0,0,1-1-1v-.92A4.08,4.08,0,0,1,4.08,36H9a1,1,0,0,1,1,1v1a4,4,0,0,1-4,4" style="fill:#28245d"/><path d="M21,28v6.15A3.08,3.08,0,0,0,23,37l7,2.54V33.19a5.24,5.24,0,0,0-2.31-4.32,5.37,5.37,0,0,0-3-.87ZM31,42a1,1,0,0,1-.34-.06l-8.32-3A5.08,5.08,0,0,1,19,34.15V27a1,1,0,0,1,1-1h4.65a7.35,7.35,0,0,1,4.17,1.21,7.25,7.25,0,0,1,3.18,6V41a1,1,0,0,1-1,1" style="fill:#28245d"/><path d="M10.66,55H33.34a3.48,3.48,0,0,1,0-3H10.66a3.48,3.48,0,0,1,0,3M8,55.95H8ZM36,57H8a1,1,0,0,1-1-1,1.06,1.06,0,0,1,.8-1A1.5,1.5,0,0,0,7.8,52a1,1,0,0,1-.8-1A1,1,0,0,1,8,50H36a1,1,0,0,1,1,1,1.05,1.05,0,0,1-.8,1,1.5,1.5,0,0,0,0,2.94,1,1,0,0,1,.8,1A1,1,0,0,1,36,57" style="fill:#28245d"/><path d="M21.51,24a1,1,0,0,1-.13-2l8.47-1.13-.47-7.33a1,1,0,0,1,.87-1.06l6.5-.83-.44-5.54a1,1,0,1,1,2-.16l.52,6.49A1,1,0,0,1,38,13.57l-6.52.83.47,7.32A1,1,0,0,1,31,22.78L21.65,24h-.13" style="fill:#28245d"/><path d="M42.26,2a2,2,0,1,0,2,2,2,2,0,0,0-2-2m0,6a4,4,0,1,1,4-4,4,4,0,0,1-4,4" style="fill:#28245d"/><path d="M20.13,26h4.68a7,7,0,0,1,1.6.19l14-18.68A4.06,4.06,0,0,1,38.79,6Zm6.67,2.34a1,1,0,0,1-.32-.05A5.19,5.19,0,0,0,24.81,28h-7a1,1,0,0,1-.73-1.68l21.43-23A1,1,0,0,1,40.26,4,2,2,0,0,0,42.1,6a1,1,0,0,1,.72,1.6L27.6,27.94a1,1,0,0,1-.8.4" style="fill:#28245d"/><path d="M44,28H40a1,1,0,0,1,0-2h4a1,1,0,1,1,0,2" style="fill:#28245d"/><path d="M42,37a4,4,0,0,1-4-4,1,1,0,0,1,2,0,2,2,0,1,0,2-2,1,1,0,0,1-1-1L41,7a1,1,0,0,1,1-1h0a1,1,0,0,1,1,1l0,22.15A4,4,0,0,1,42,37" style="fill:#28245d"/></g></g></g></svg>