<svg xmlns="http://www.w3.org/2000/svg" xmlns:xlink="http://www.w3.org/1999/xlink" viewBox="0 0 15 30"><defs><clipPath id="dee317e6-c879-4619-a9eb-b8f3318d982c"><rect width="15" height="30" style="fill:none"/></clipPath></defs><title>selection-5</title><g id="f84b4284-3911-4ded-9be4-690bfdc6ca93" data-name="Layer 2"><g id="26bfff13-8827-4270-b77b-7a8ca0b5d85d" data-name="Layer 1"><g style="clip-path:url(#dee317e6-c879-4619-a9eb-b8f3318d982c)"><path d="M4.5,0a2,2,0,1,0,2,2,2,2,0,0,0-2-2m0,1a1,1,0,1,1-1,1,1,1,0,0,1,1-1M11,2.5A1.5,1.5,0,1,0,12.5,4,1.51,1.51,0,0,0,11,2.5m0,1a.5.5,0,1,1-.5.5.49.49,0,0,1,.5-.5M4,6A1.5,1.5,0,0,0,4,9h.5v6.68a7.51,7.51,0,1,0,6,0V9H11a1.5,1.5,0,0,0,0-3ZM4,7h7a.5.5,0,0,1,0,1H4A.5.5,0,0,1,4,7M5.5,9h4v7a.5.5,0,0,0,.32.47,6.48,6.48,0,0,1,4,4.56H7.4a.5.5,0,0,0,0,1H14c0,.17,0,.33,0,.5a6.5,6.5,0,0,1-13,0c0-.17,0-.34,0-.5H1.7a.5.5,0,1,0,0-1H1.19a6.48,6.48,0,0,1,4-4.56A.5.5,0,0,0,5.5,16V15H8a.5.5,0,1,0,0-1H5.5V13H7a.5.5,0,0,0,0-1H5.5V11H8a.5.5,0,0,0,0-1H5.5ZM7,17a1.5,1.5,0,1,0,1.5,1.5A1.51,1.51,0,0,0,7,17m0,1a.5.5,0,1,1-.5.5A.49.49,0,0,1,7,18M4.5,21a2,2,0,1,0,2,2,2,2,0,0,0-2-2m0,1a1,1,0,1,1-1,1,1,1,0,0,1,1-1M11,23a1.5,1.5,0,1,0,1.5,1.5A1.51,1.51,0,0,0,11,23m0,1a.5.5,0,1,1-.5.5A.49.49,0,0,1,11,24" style="fill:#28245d"/></g></g></g></svg>