<svg xmlns="http://www.w3.org/2000/svg" xmlns:xlink="http://www.w3.org/1999/xlink" viewBox="0 0 23 23"><defs><clipPath id="ef3b4699-2fe7-428f-a634-211bc40d2147"><rect width="23" height="23" style="fill:none"/></clipPath></defs><title>selection-12</title><g id="f8167dca-9158-4abe-8658-3228fc0d6416" data-name="Layer 2"><g id="37a6894e-06ea-4632-b4a0-42110f66aeb5" data-name="Layer 1"><g style="clip-path:url(#ef3b4699-2fe7-428f-a634-211bc40d2147)"><path d="M21.65,9.52a10.39,10.39,0,0,0-8.17-8.17A1.5,1.5,0,0,0,12,0H11A1.5,1.5,0,0,0,9.52,1.35,10.39,10.39,0,0,0,1.35,9.52,1.5,1.5,0,0,0,0,11v1a1.5,1.5,0,0,0,1.35,1.49,10.39,10.39,0,0,0,8.17,8.17A1.5,1.5,0,0,0,11,23h1a1.5,1.5,0,0,0,1.48-1.35,10.39,10.39,0,0,0,8.17-8.17A1.5,1.5,0,0,0,23,12V11a1.5,1.5,0,0,0-1.35-1.48M13.5,2.37A9.39,9.39,0,0,1,20.63,9.5H17.14A6,6,0,0,0,13.5,5.86Zm-3-.87A.5.5,0,0,1,11,1h1a.5.5,0,0,1,.5.5V6a.5.5,0,0,1-.5.5H11a.5.5,0,0,1-.5-.5Zm-1,.87V5.86A6,6,0,0,0,5.85,9.5H2.37A9.39,9.39,0,0,1,9.5,2.37M1,12V11a.5.5,0,0,1,.5-.5H6a.5.5,0,0,1,.5.5v1a.5.5,0,0,1-.5.5H1.5A.5.5,0,0,1,1,12m8.5,8.63A9.39,9.39,0,0,1,2.37,13.5H5.85A6,6,0,0,0,9.5,17.14Zm3,.87a.5.5,0,0,1-.5.5H11a.5.5,0,0,1-.5-.5V17a.5.5,0,0,1,.5-.5h1a.5.5,0,0,1,.5.5Zm.75-5.33A1.5,1.5,0,0,0,12,15.5H11a1.5,1.5,0,0,0-1.25.68,5,5,0,0,1-2.92-2.92A1.5,1.5,0,0,0,7.5,12V11a1.5,1.5,0,0,0-.68-1.25A5,5,0,0,1,9.75,6.83,1.5,1.5,0,0,0,11,7.5h1a1.5,1.5,0,0,0,1.25-.67,5,5,0,0,1,2.92,2.92A1.5,1.5,0,0,0,15.5,11v1a1.5,1.5,0,0,0,.67,1.25,5,5,0,0,1-2.92,2.92m.25,4.46V17.14a6,6,0,0,0,3.64-3.64h3.49a9.39,9.39,0,0,1-7.13,7.13M22,12a.5.5,0,0,1-.5.5H17a.5.5,0,0,1-.5-.5V11a.5.5,0,0,1,.5-.5h4.5a.5.5,0,0,1,.5.5Z" style="fill:#28245d"/></g></g></g></svg>