<svg xmlns="http://www.w3.org/2000/svg" xmlns:xlink="http://www.w3.org/1999/xlink" viewBox="0 0 16.8 23.69"><defs><clipPath id="368ef809-d6a0-43d7-9b78-2d7ea66c80d9"><rect width="16.8" height="23.69" style="fill:none"/></clipPath></defs><title>selection-6</title><g id="e301e070-e9ac-4c7b-9ff2-cd6618fec8f6" data-name="Layer 2"><g id="23207fea-d948-4d67-ba43-896ef70dfeaf" data-name="Layer 1"><g style="clip-path:url(#368ef809-d6a0-43d7-9b78-2d7ea66c80d9)"><path d="M8.4,11.91S6.31,15,6.31,16.15a2.09,2.09,0,1,0,4.19,0c0-1.16-2.09-4.24-2.09-4.24" style="fill:#28245d"/><path d="M16.72,10.5v0L10.94,3.33a.4.4,0,0,0-.31-.15H9.2a1.39,1.39,0,0,0,.14-.6V1.4A1.4,1.4,0,0,0,7.94,0H3.84a1.4,1.4,0,0,0-1.4,1.4V2.58a1.39,1.39,0,0,0,.14.6h-1A1.53,1.53,0,0,0,0,4.67V22.2a1.52,1.52,0,0,0,1.56,1.49H15.24A1.53,1.53,0,0,0,16.8,22.2V10.73a.4.4,0,0,0-.08-.23M.8,11.13H16V19H.8ZM8.54,1.4V2.58a.6.6,0,0,1-.6.6H7.77V.8h.17a.6.6,0,0,1,.6.6m-4-.6H5.1V3.18H4.51ZM5.6.8h.59V3.18H5.6ZM6.68.8h.59V3.18H6.68ZM3.24,2.58V1.4a.6.6,0,0,1,.6-.6H4V3.18H3.84a.6.6,0,0,1-.6-.6M1.56,4h8.89l5.12,6.35H.8V4.67A.72.72,0,0,1,1.56,4M15.24,22.89H1.56A.73.73,0,0,1,.8,22.2V19.82H16V22.2a.72.72,0,0,1-.76.69" style="fill:#28245d"/></g></g></g></svg>