<svg xmlns="http://www.w3.org/2000/svg" viewBox="0 0 101.5 101.5"><title>selection-1</title><g id="413ae1dd-d346-480b-ba4b-86d82be6b911" data-name="Layer 2"><g id="cd3a9a29-00f0-4a93-9dce-618f8a421697" data-name="Слой 1"><path d="M87.35.75H14.15A13.4,13.4,0,0,0,.75,14.15a13.55,13.55,0,0,0,12.2,13.4v72a1.16,1.16,0,0,0,1.2,1.2h85.4a1.16,1.16,0,0,0,1.2-1.2V14.15A13.4,13.4,0,0,0,87.35.75Zm11,13.4a11,11,0,1,1-11-11A11,11,0,0,1,98.35,14.15Zm-95.2,0a11,11,0,0,1,11-11h65.5a13.19,13.19,0,0,0-5.7,11,13.58,13.58,0,0,0,5.7,11H14.15A11,11,0,0,1,3.15,14.15Zm95.2,36.6a11,11,0,1,1-11-11A11,11,0,0,1,98.35,50.75Zm-24.4,0a13.73,13.73,0,0,0,5.7,11H38.55a11,11,0,0,1,0-22h41.1A13.46,13.46,0,0,0,73.95,50.75Zm24.4,47.6H39.75V64.15h47.6a13.73,13.73,0,0,0,11-5.7Zm0-55.3a13.19,13.19,0,0,0-11-5.7H38.55a13.4,13.4,0,0,0-13.4,13.4,13.55,13.55,0,0,0,12.2,13.4v34.2h-22V27.55h72a13.73,13.73,0,0,0,11-5.7Z" style="fill:#28245d"/><path d="M99.55,101.5H14.15a1.91,1.91,0,0,1-2-2V28.21A14.17,14.17,0,0,1,14.15,0h73.2A14.17,14.17,0,0,1,101.5,14.15v85.4A1.91,1.91,0,0,1,99.55,101.5ZM14.15,1.5A12.68,12.68,0,0,0,13,26.8l.67.07V99.55a.41.41,0,0,0,.45.45h85.4a.41.41,0,0,0,.45-.45V14.15A12.66,12.66,0,0,0,87.35,1.5ZM99.1,99.1H39V63.4H87.35A13,13,0,0,0,97.75,58l1.35-1.84ZM40.5,97.6H97.6V60.49A14.41,14.41,0,0,1,87.35,64.9H40.5Zm-2.4,1.5H14.6V26.8H87.35a13,13,0,0,0,10.4-5.39l1.35-1.84V45.47l-1.37-2A12.37,12.37,0,0,0,87.35,38.1H38.55a12.68,12.68,0,0,0-1.12,25.3l.67.07Zm-22-1.5H36.6V64.81a14.17,14.17,0,0,1,2-28.21h48.8A13.91,13.91,0,0,1,97.6,40.93v-17A14.41,14.41,0,0,1,87.35,28.3H16.1ZM87.35,62.5A11.75,11.75,0,1,1,99.1,50.75,11.76,11.76,0,0,1,87.35,62.5Zm0-22A10.25,10.25,0,1,0,97.6,50.75,10.26,10.26,0,0,0,87.35,40.5Zm-5.41,22H38.55a11.75,11.75,0,0,1,0-23.5H82l-1.9,1.36A12.65,12.65,0,0,0,74.7,50.75a13,13,0,0,0,5.39,10.4Zm-43.39-22a10.25,10.25,0,0,0,0,20.5H77.61A14.41,14.41,0,0,1,73.2,50.75,14.06,14.06,0,0,1,77.57,40.5Zm48.8-14.6A11.75,11.75,0,1,1,99.1,14.15,11.76,11.76,0,0,1,87.35,25.9Zm0-22A10.25,10.25,0,1,0,97.6,14.15,10.26,10.26,0,0,0,87.35,3.9Zm-5.41,22H14.15a11.75,11.75,0,0,1,0-23.5H82.07l-2,1.37A12.37,12.37,0,0,0,74.7,14.15a12.85,12.85,0,0,0,5.39,10.4ZM14.15,3.9a10.25,10.25,0,0,0,0,20.5H77.6a14.19,14.19,0,0,1-4.4-10.25A13.91,13.91,0,0,1,77.53,3.9Z" style="fill:#28245d"/><path d="M81.25,14.15a6.1,6.1,0,1,0,6.1-6.1A6.12,6.12,0,0,0,81.25,14.15Zm9.7,0a3.69,3.69,0,0,1-3.7,3.7,3.7,3.7,0,0,1,0-7.4A3.69,3.69,0,0,1,90.95,14.15Z" style="fill:#28245d"/><path d="M87.35,21a6.78,6.78,0,0,1-6.85-6.85A6.86,6.86,0,0,1,87.35,7.3a6.78,6.78,0,0,1,6.85,6.85A6.78,6.78,0,0,1,87.35,21Zm0-12.2A5.36,5.36,0,0,0,82,14.15,5.35,5.35,0,1,0,87.35,8.8Zm-.1,9.8a4.45,4.45,0,1,1,0-8.9,4.45,4.45,0,0,1,0,8.9Zm0-7.4a2.95,2.95,0,1,0,0,5.9,2.95,2.95,0,0,0,0-5.9Z" style="fill:#28245d"/><path d="M87.35,56.85a6.1,6.1,0,1,0-6.1-6.1A6.06,6.06,0,0,0,87.35,56.85Zm0-9.8a3.69,3.69,0,0,1,3.7,3.7,3.63,3.63,0,0,1-3.7,3.7,3.69,3.69,0,0,1-3.7-3.7A3.76,3.76,0,0,1,87.35,47.05Z" style="fill:#28245d"/><path d="M87.35,57.6a6.85,6.85,0,1,1,6.85-6.85A6.78,6.78,0,0,1,87.35,57.6Zm0-12.2a5.35,5.35,0,1,0,5.35,5.35A5.29,5.29,0,0,0,87.35,45.4Zm0,9.8a4.46,4.46,0,0,1-4.45-4.45,4.51,4.51,0,0,1,4.45-4.45,4.46,4.46,0,0,1,4.45,4.45A4.4,4.4,0,0,1,87.35,55.2Zm0-7.4a3,3,0,0,0-2.95,2.95,3,3,0,0,0,2.95,3,2.89,2.89,0,0,0,3-3A3,3,0,0,0,87.35,47.8Z" style="fill:#28245d"/></g></g></svg>