<svg xmlns="http://www.w3.org/2000/svg" xmlns:xlink="http://www.w3.org/1999/xlink" viewBox="0 0 48 47.97"><defs><clipPath id="d8fa078b-4066-46dd-90a5-c034288bd5fb" transform="translate(0 0)"><rect width="48" height="47.97" style="fill:none"/></clipPath></defs><title>selection-7</title><g id="b412fabe-2da0-442b-a282-640e3774be2a" data-name="Layer 2"><g id="7fbdc1d0-9962-4dec-882e-13f16099cc1b" data-name="Layer 1"><g style="clip-path:url(#d8fa078b-4066-46dd-90a5-c034288bd5fb)"><path d="M13,46H48v2H0V46ZM45.8,18,42.3,32a1.74,1.74,0,0,1,1.1.6A2,2,0,0,1,44,34v6h2V38h2v6H46V42H39.9a5,5,0,0,1-9.8,0H28a1,1,0,0,1-.9-.7L26.3,39H21.7l-.8,2.3a1,1,0,0,1-.9.7H17.9a5,5,0,0,1-9.8,0H2v2H0V38H2v2H4V34a2,2,0,0,1,.6-1.4A2.38,2.38,0,0,1,5.7,32L2.2,18H2a2,2,0,0,1-1.4-.6A2,2,0,0,1,0,16V14a2,2,0,0,1,.6-1.4A2,2,0,0,1,2,12H3V11a.91.91,0,0,1,.3-.7l4-4A.91.91,0,0,1,8,6h3a.91.91,0,0,1,.7.3l.1.1,3.3-5A1.8,1.8,0,0,1,16,1h3a1.07,1.07,0,0,1,.6.2L21.8,3l1.8-.9c.1-.1.2-.1.4-.1h3.7L30.4.17a1.18,1.18,0,0,1,1-.1l2,1c.2.1.4.3.4.4L35.6,5H39a.91.91,0,0,1,.7.3l1.8,1.8,2.8.9A1.2,1.2,0,0,1,45,9v2H43V9.67l-2.3-.8a.75.75,0,0,1-.4-.2L38.6,7H35a1,1,0,0,1-.9-.6l-1.9-3.7L31,2.07l-2.5,1.7A.76.76,0,0,1,28,4H24.2l-.8.4,2.2,1.8A.91.91,0,0,1,26,7V9H24V7.47L18.6,3H16.5l-3.7,5.6a.84.84,0,0,1-.7.4,1.14,1.14,0,0,1-.8-.3L10.6,8H8.4L5,11.37V12H46a2.05,2.05,0,0,1,2,2v2a2.05,2.05,0,0,1-2,2Zm-30,24H13V40h2.8A2.91,2.91,0,0,0,13,38a3,3,0,1,0,0,6,2.91,2.91,0,0,0,2.8-2M38,41a3,3,0,0,0-3-3,2.91,2.91,0,0,0-2.8,2H35v2H32.2A2.91,2.91,0,0,0,35,44a3,3,0,0,0,3-3m4-1V34H6v6H8.1a5,5,0,0,1,9.8,0h1.4l.8-2.3A1,1,0,0,1,21,37h6a1,1,0,0,1,.9.7l.8,2.3h1.4a5,5,0,0,1,9.8,0Zm1.7-22H9V16H46V14H2v2H7v2H4.3L7.8,32H40.2Z" transform="translate(0 0)" style="fill:#28245d"/></g></g></g></svg>