<svg xmlns="http://www.w3.org/2000/svg" xmlns:xlink="http://www.w3.org/1999/xlink" viewBox="0 0 87.26 78.66"><defs><clipPath id="25552d53-8765-4bc2-8ff5-2508c8e0bd0d" transform="translate(0 0)"><rect width="87.26" height="78.66" style="fill:none"/></clipPath></defs><title>selection-13</title><g id="ca7d31d4-cd02-4409-8bef-88dd6d8413c7" data-name="Layer 2"><g id="aea6614d-0e2f-4092-87a8-1aa59d8b0bce" data-name="Layer 1"><g style="clip-path:url(#25552d53-8765-4bc2-8ff5-2508c8e0bd0d)"><path d="M62.9.9h-.2A28.9,28.9,0,0,0,44.3,7.8C38.5,2.6,32.9,0,27.8,0A25.9,25.9,0,0,0,9.1,7.9,26.9,26.9,0,0,0,2,21.7a3,3,0,0,0,5.9,1.1A20.9,20.9,0,0,1,13.5,12,19.9,19.9,0,0,1,27.9,5.9c4,0,9,2.7,14.3,7.9a3.2,3.2,0,0,0,4.5,0A23.3,23.3,0,0,1,63,6.8a17,17,0,0,1,12.3,5.1,21.1,21.1,0,0,1,6,14.8,21.71,21.71,0,0,1-1.2,6.9H57.5a3,3,0,0,0-2.2.9l-9.1,9.6L35.8,20.6a3,3,0,0,0-5.3-.4L22.2,33.8H3a3,3,0,0,0,0,6H23.9a3,3,0,0,0,2.5-1.5l6.2-10,10,22.6a3,3,0,0,0,2.2,1.7h.5a3,3,0,0,0,2.2-.9l11.3-12h18l-1.5,1.8-31,30L19.9,47.8a3,3,0,0,0-4.2,4.3L42.3,77.8a3,3,0,0,0,4.2,0l33.1-32a27.4,27.4,0,0,0,0-38A22.9,22.9,0,0,0,62.9.9" transform="translate(0 0)" style="fill:#28245d"/></g></g></g></svg>