<svg xmlns="http://www.w3.org/2000/svg" xmlns:xlink="http://www.w3.org/1999/xlink" viewBox="0 0 60 51.69"><defs><clipPath id="adf21801-acdb-419b-be79-731077ec6c2b" transform="translate(0 0)"><rect width="60" height="51.69" style="fill:none"/></clipPath></defs><title>selection-4</title><g id="66250519-7748-4c47-9205-7fd15ef0e460" data-name="Layer 2"><g id="bdf2cd5d-e414-4b54-8a69-ebe91335f43e" data-name="Layer 1"><g style="clip-path:url(#adf21801-acdb-419b-be79-731077ec6c2b)"><path d="M7,28.69H28L24.55,13.26a2,2,0,0,0-2-1.56H9a2,2,0,0,0-2,2Zm23.5,2H5v-17a4,4,0,0,1,4-4H22.59a4,4,0,0,1,3.91,3.13Z" transform="translate(0 0)" style="fill:#28245d"/><path d="M7,41.69H39.21a.45.45,0,0,0,.38-.21l3.57-10.14a.45.45,0,0,0-.4-.65H7Zm32.21,2H5v-15H42.76A2.45,2.45,0,0,1,45,32.18L41.4,42.34a2.44,2.44,0,0,1-2.19,1.35" transform="translate(0 0)" style="fill:#28245d"/><path d="M12,17.69v5h8.68l-1.43-5Zm8.67,7H12a2,2,0,0,1-2-2v-5a2,2,0,0,1,2-2h7.25a2,2,0,0,1,1.92,1.45l1.43,5a2,2,0,0,1-1.92,2.55" transform="translate(0 0)" style="fill:#28245d"/><path d="M23,34.69H6a1,1,0,0,1,0-2H23a1,1,0,0,1,0,2" transform="translate(0 0)" style="fill:#28245d"/><path d="M29,38.69H6a1,1,0,0,1,0-2H29a1,1,0,0,1,0,2" transform="translate(0 0)" style="fill:#28245d"/><path d="M30.05,28.69h.49l22.09-23a2.19,2.19,0,0,0-.25-3.18,2.19,2.19,0,0,0-3,.23h0L29,24.11Zm.91,2H29.25a1,1,0,0,1-1-.78L27,24a1,1,0,0,1,.25-.91L47.93,1.34A4.19,4.19,0,1,1,54.08,7L31.69,30.39a1,1,0,0,1-.72.31" transform="translate(0 0)" style="fill:#28245d"/><path d="M5,43.69a3,3,0,0,0,0,6H43a3,3,0,0,0,0-6Zm38,8H5a5,5,0,1,1,0-10H43a5,5,0,0,1,0,10" transform="translate(0 0)" style="fill:#28245d"/><path d="M15,46.69a1,1,0,1,1-1-1,1,1,0,0,1,1,1" transform="translate(0 0)" style="fill:#28245d"/><path d="M20,46.69a1,1,0,1,1-1-1,1,1,0,0,1,1,1" transform="translate(0 0)" style="fill:#28245d"/><path d="M25,46.69a1,1,0,1,1-1-1,1,1,0,0,1,1,1" transform="translate(0 0)" style="fill:#28245d"/><path d="M30,46.69a1,1,0,1,1-1-1,1,1,0,0,1,1,1" transform="translate(0 0)" style="fill:#28245d"/><path d="M35,46.69a1,1,0,1,1-1-1,1,1,0,0,1,1,1" transform="translate(0 0)" style="fill:#28245d"/><path d="M14,9.69h4v-2a2,2,0,0,0-4,0Zm6,2H12v-4a4,4,0,0,1,8,0Z" transform="translate(0 0)" style="fill:#28245d"/><path d="M54,20.69a1,1,0,0,1-1-1v-14a1,1,0,0,1,2,0v14a1,1,0,0,1-1,1" transform="translate(0 0)" style="fill:#28245d"/><path d="M58,28.7a1,1,0,0,1-.8-1.6,4,4,0,1,0-6.4,0,1,1,0,0,1-1.6,1.2,6,6,0,1,1,9.6,0,1,1,0,0,1-.8.4" transform="translate(0 0)" style="fill:#28245d"/><path d="M5,43.69a3,3,0,1,0,3,3,3,3,0,0,0-3-3m0,8a5,5,0,1,1,5-5,5,5,0,0,1-5,5" transform="translate(0 0)" style="fill:#28245d"/><path d="M43,43.69a3,3,0,1,0,3,3,3,3,0,0,0-3-3m0,8a5,5,0,1,1,5-5,5,5,0,0,1-5,5" transform="translate(0 0)" style="fill:#28245d"/><path d="M51.82,36.84l3.85.77,2.22-2.22-.75-3L54.2,30.91,51.11,34ZM56,39.69l-.2,0-5-1a1,1,0,0,1-.77-.74l-1-4a1,1,0,0,1,.26-.95l4-4a1,1,0,0,1,1.15-.19l4,2a1,1,0,0,1,.52.65l1,4a1,1,0,0,1-.26.95l-3,3a1,1,0,0,1-.71.29" transform="translate(0 0)" style="fill:#28245d"/></g></g></g></svg>