<svg xmlns="http://www.w3.org/2000/svg" viewBox="0 0 90.01 90.01"><defs><clipPath id="a"><path fill="none" d="M0 0h90.01v90.01H0z"/></clipPath></defs><title>advantage-6</title><g clip-path="url(#a)" fill="#28245d" data-name="Layer 1"><path d="M29.74 56.91a2 2 0 0 0 1.41-.59l2.92-2.92a2.001 2.001 0 0 0-2.83-2.83l-2.92 2.92a2 2 0 0 0 1.41 3.41M26.64 58a2 2 0 0 0-2.83 0L7.54 74.28a2.001 2.001 0 1 0 2.83 2.83l16.27-16.27a2 2 0 0 0 0-2.83M36.61 55.93L22.47 70.07a2.001 2.001 0 1 0 2.83 2.83l14.14-14.14a2.001 2.001 0 1 0-2.83-2.83M17.32 75.22l-4.42 4.42a2.001 2.001 0 0 0 2.83 2.83L20.15 78a2.001 2.001 0 0 0-2.83-2.83"/><path d="M15.07 18.54a2.87 2.87 0 0 1-4 0l-6.85-6.82-.22-.18-.15-.11-.17-.09-.2-.09H2.17l-.17.08-.15.08-.18.11-.15.12-.1.08v.05l-.13.16-.11.16-.18.17c0 .07-.06.13-.09.2v.06a18 18 0 0 0 22.71 22.82L31 42.71a5.73 5.73 0 0 0-3.44 1.63L3.27 68.64a8.57 8.57 0 0 0 0 12.1l6 6a8.57 8.57 0 0 0 12.1 0l24.3-24.29A5.73 5.73 0 0 0 47.3 59l7.37 7.37A18.07 18.07 0 0 0 77.5 89.11h.06l.19-.09.17-.09.15-.11.17-.14.07-.08.14-.17.1-.16a1.69 1.69 0 0 0 .09-.17 1.63 1.63 0 0 0 .07-.18 1.8 1.8 0 0 0 .06-.19 1.63 1.63 0 0 0 0-.18v-.2a1.51 1.51 0 0 0 0-.19v-.19-.21a.9.9 0 0 0 0-.11v-.06c0-.07-.06-.13-.09-.19l-.09-.17-.12-.23-.14-.17L71.48 79a2.87 2.87 0 0 1 0-4l3.42-3.42a2.87 2.87 0 0 1 4 0l6.81 6.81.17.14.15.11.16.09.2.09h.12a2 2 0 0 0 .56.09 2 2 0 0 0 .54-.08h.11a1.93 1.93 0 0 0 .48-.24l.08-.06a2.07 2.07 0 0 0 .2-.17 1.92 1.92 0 0 0 .14-.17l.08-.09a2.06 2.06 0 0 0 .26-.5 18.08 18.08 0 0 0-22.63-22.89l-12-12 21.81-21.82 4.5.31h.14a2 2 0 0 0 1.75-1l7.22-13a2 2 0 0 0-.33-2.38l-.48-.49-3.21-3.26-.49-.48a2 2 0 0 0-2.38-.34l-13 7.22a2 2 0 0 0-1 1.89l.32 4.5-21.87 21.83-12-12A18.08 18.08 0 0 0 12.47 1h-.06l-.2.09-.21.06-.15.11-.17.14-.07.09-.14.17-.1.16-.09.18-.07.18q0 .09-.05.18a1.68 1.68 0 0 0 0 .19 1.39 1.39 0 0 0 0 .19 1.79 1.79 0 0 0 0 .19V3.5a2 2 0 0 0 .09.19 1.72 1.72 0 0 0 .09.17l.1.14.14.18 6.81 6.81a2.87 2.87 0 0 1 0 4zm27.77 41.08l-24.29 24.3a4.56 4.56 0 0 1-6.44 0l-6-6a4.56 4.56 0 0 1 0-6.44l24.28-24.31a1.79 1.79 0 0 1 2.53 0l1.61 1.61A2 2 0 0 0 37.36 46l-.29-.29 1.31-1.31a1.42 1.42 0 0 1 2 0l.54.54 4.19 4.19.54.54a1.42 1.42 0 0 1 0 2l-1.3 1.3L42 50.64a2.001 2.001 0 0 0-2.83 2.83l3.62 3.62a1.8 1.8 0 0 1 0 2.53m21.57-1.18a1.82 1.82 0 0 0 .19.15l.11.08a2 2 0 0 0 1.12.35 2 2 0 0 0 .8-.17 14.08 14.08 0 0 1 19.3 14l-4.12-4.15a6.87 6.87 0 0 0-9.7 0l-3.42 3.41a6.87 6.87 0 0 0 0 9.7L72.81 86a14.08 14.08 0 0 1-14-19.25 2 2 0 0 0 .53-.37L61 64.64a2.001 2.001 0 1 0-2.84-2.82L57 63l-8.56-8.5a5.41 5.41 0 0 0 .76-6.67l2.25-2.25zm19.07-54l2.05 2.05-5.83 10.63-4.15-.29h-.59l-.27.08h-.08l-.27.14h-.06a2 2 0 0 0-.26.21L46.52 44.85l-1.36-1.36L72.6 16.05a2.06 2.06 0 0 0 .19-.23l.06-.09a2.38 2.38 0 0 0 .12-.24l.05-.12a2.15 2.15 0 0 0 .07-.23v-.15a2 2 0 0 0 0-.21v-.2-.07l-.29-4.15zM21.31 8.25l-4.16-4.16a14.07 14.07 0 0 1 14.08 19.08 2 2 0 0 0-.27.22l-1.7 1.71a2.001 2.001 0 1 0 2.84 2.82L33 27l11.48 11.52-2.25 2.25a5.42 5.42 0 0 0-6.68.77l-9.95-9.89a2 2 0 0 0-2.2-.47A14.08 14.08 0 0 1 4 17.2l4.2 4.16a6.87 6.87 0 0 0 9.7 0l3.41-3.42a6.87 6.87 0 0 0 0-9.7"/></g></svg>