<svg xmlns="http://www.w3.org/2000/svg" viewBox="0 0 60 60"><defs><clipPath id="a"><path fill="none" d="M0 0h60v60H0z"/></clipPath></defs><title>advantage-4</title><g clip-path="url(#a)" fill="#28245d" data-name="Layer 1"><path d="M20 49.48a9 9 0 1 0-6.33-2.62A9 9 0 0 0 20 49.48m-4.91-13.87a7 7 0 1 1-2 4.92 7 7 0 0 1 2-4.92"/><path d="M21.43 38.41L22.84 37a4.1 4.1 0 0 0-5.66 0l1.41 1.41a2 2 0 0 1 2.83 0"/><path d="M6 59.71a1 1 0 0 0 1.41 0l4.24-4.24a1 1 0 0 0 0-1.41l-.79-.79 1.59-1.58a13.56 13.56 0 1 0-4.08-4.41L6.58 49 6 48.39a1 1 0 0 0-1.41 0L.3 52.64a1 1 0 0 0 0 1.41zm5.88-27.31a11.5 11.5 0 1 1-3.37 8.13 11.5 11.5 0 0 1 3.37-8.13M9.4 49l1.41 1.42-1.41 1.43-.69-.69-.71-.73zm-4.16 1.5l.62.62 1.45 1.45 2.17 2.17-2.82 2.85-4.24-4.25zM59.9 13.31a1 1 0 0 0-.59-.81l-2.11-.93c-.1-.39-.22-.76-.35-1.11l1.17-2a1 1 0 0 0 0-1 15.34 15.34 0 0 0-2-2.74 1 1 0 0 0-1-.31l-2.22.51c-.29-.23-.59-.45-.9-.66l-.13-2.36a1 1 0 0 0-.57-.82A14.75 14.75 0 0 0 48 0a1 1 0 0 0-1 .33l-1.44 1.78a10.78 10.78 0 0 0-1.11 0L42.93.35A1 1 0 0 0 42 0a14.82 14.82 0 0 0-3.16 1.06 1 1 0 0 0-.58.82L38 4.25c-.31.21-.61.43-.9.66l-2.2-.51a1 1 0 0 0-1 .31 15.4 15.4 0 0 0-2 2.74 1 1 0 0 0 0 1l1.17 2c-.13.36-.24.72-.35 1.11l-2.11.93a1 1 0 0 0-.59.81 14.86 14.86 0 0 0 0 3.39 1 1 0 0 0 .59.81l2.11.93c.1.39.22.76.35 1.11l-1.17 2a1 1 0 0 0 0 1 15.39 15.39 0 0 0 2 2.74 1 1 0 0 0 1 .31l2.22-.51c.29.23.59.45.9.66l.22 2.34a1 1 0 0 0 .57.82A14.83 14.83 0 0 0 42 30a1 1 0 0 0 1-.33l1.52-1.76a10.78 10.78 0 0 0 1.11 0l1.52 1.76a1 1 0 0 0 .76.35h.2a14.83 14.83 0 0 0 3.16-1.06 1 1 0 0 0 .58-.82l.15-2.38c.31-.21.61-.43.9-.66l2.22.51a1 1 0 0 0 1-.31 15.35 15.35 0 0 0 2-2.74 1 1 0 0 0 0-1l-1.17-2c.13-.35.24-.72.35-1.11l2.11-.93a1 1 0 0 0 .59-.81 15 15 0 0 0 0-3.39zm-1.9 2.6l-2 .89a1 1 0 0 0-.57.69 10.79 10.79 0 0 1-.55 1.76 1 1 0 0 0 .06.88L56 22.06a13.57 13.57 0 0 1-1 1.46L52.84 23a1 1 0 0 0-.88.23 10.75 10.75 0 0 1-1.45 1.07 1 1 0 0 0-.47.76l-.21 2.24a12.85 12.85 0 0 1-1.64.56l-1.44-1.68a1 1 0 0 0-.84-.34 11.05 11.05 0 0 1-1.8 0 1 1 0 0 0-.84.34l-1.45 1.68a12.81 12.81 0 0 1-1.64-.56L40 25.09a1 1 0 0 0-.47-.76A10.71 10.71 0 0 1 38 23.26a1 1 0 0 0-.88-.23l-2.12.49a13.36 13.36 0 0 1-1-1.46l1.12-1.93a1 1 0 0 0 .06-.88 10.83 10.83 0 0 1-.55-1.76 1 1 0 0 0-.57-.69l-2-.89V15v-.91l2-.89a1 1 0 0 0 .57-.69 10.89 10.89 0 0 1 .55-1.76 1 1 0 0 0-.06-.88L34 7.94a13.51 13.51 0 0 1 1-1.46l2.17.52a1 1 0 0 0 .83-.26 10.74 10.74 0 0 1 1.5-1.07 1 1 0 0 0 .5-.76l.21-2.24a12.65 12.65 0 0 1 1.64-.56l1.44 1.68a1 1 0 0 0 .84.34 11 11 0 0 1 1.8 0 1 1 0 0 0 .84-.34l1.43-1.68a12.69 12.69 0 0 1 1.64.56L50 4.91a1 1 0 0 0 .47.76A10.57 10.57 0 0 1 52 6.74a1 1 0 0 0 .89.23L55 6.48a13.23 13.23 0 0 1 1 1.46l-1.11 1.93a1 1 0 0 0-.06.88 10.77 10.77 0 0 1 .55 1.76 1 1 0 0 0 .57.69l2 .89v1.82z"/><path d="M45 6a9 9 0 1 0 9 9 9 9 0 0 0-9-9m0 16a7 7 0 1 1 7-7 7 7 0 0 1-7 7M.68 15.27l1.74.73c.08.29.16.57.26.84l-1 1.67a1 1 0 0 0 0 1 13.25 13.25 0 0 0 1.7 2.38 1 1 0 0 0 1 .31l1.84-.42c.21.17.44.34.67.49l.18 1.94a1 1 0 0 0 .58.82 12.81 12.81 0 0 0 2.74.92 1 1 0 0 0 1-.33l1.26-1.45a8.09 8.09 0 0 0 .82 0l1.26 1.45a1 1 0 0 0 1 .33 12.8 12.8 0 0 0 2.74-.92 1 1 0 0 0 .58-.82l.18-1.94q.35-.24.67-.49l1.84.42a1 1 0 0 0 1-.31 13.2 13.2 0 0 0 1.7-2.38 1 1 0 0 0 0-1l-1-1.67c.09-.27.18-.55.26-.84l1.74-.77a1 1 0 0 0 .59-.81 13 13 0 0 0 0-2.93 1 1 0 0 0-.59-.81L23.58 10c-.08-.29-.17-.57-.26-.84l1-1.67a1 1 0 0 0 0-1 13.23 13.23 0 0 0-1.7-2.38 1 1 0 0 0-1-.31l-1.82.4c-.21-.17-.44-.34-.67-.49L19 1.76a1 1 0 0 0-.57-.82 12.79 12.79 0 0 0-2.8-.94 1 1 0 0 0-1 .33L13.42 1.8a8.09 8.09 0 0 0-.82 0L11.34.35a1 1 0 0 0-1-.33 12.8 12.8 0 0 0-2.7.92 1 1 0 0 0-.58.82L6.88 3.7c-.23.16-.46.32-.67.49l-1.83-.41a1 1 0 0 0-1 .31A13.22 13.22 0 0 0 1.7 6.46a1 1 0 0 0 0 1l1 1.67c-.1.27-.18.55-.26.84l-1.74.77a1 1 0 0 0-.59.81 13 13 0 0 0 0 2.93 1 1 0 0 0 .59.81m1.35-3l1.65-.73a1 1 0 0 0 .57-.69 9.29 9.29 0 0 1 .46-1.48 1 1 0 0 0-.06-.88L3.74 7a11.37 11.37 0 0 1 .78-1.09l1.73.4A1 1 0 0 0 7.13 6a9.2 9.2 0 0 1 1.23-.91 1 1 0 0 0 .47-.76L9 2.53a11.28 11.28 0 0 1 1.22-.41l1.18 1.37a1 1 0 0 0 .84.34 9.36 9.36 0 0 1 1.52 0 1 1 0 0 0 .84-.34l1.18-1.37a11.44 11.44 0 0 1 1.22.41l.17 1.84a1 1 0 0 0 .47.76 9.07 9.07 0 0 1 1.22.9 1 1 0 0 0 .89.23l1.73-.4a10.91 10.91 0 0 1 .78 1.09l-.91 1.58a1 1 0 0 0-.06.88 9.29 9.29 0 0 1 .46 1.48 1 1 0 0 0 .57.69l1.65.73v1.36l-1.65.73a1 1 0 0 0-.57.69 9.23 9.23 0 0 1-.46 1.48 1 1 0 0 0 .06.88l.92 1.55a11.24 11.24 0 0 1-.78 1.09l-1.73-.4a1 1 0 0 0-.89.23 9 9 0 0 1-1.23.9 1 1 0 0 0-.47.76L17 23.46a11.28 11.28 0 0 1-1.22.42l-1.18-1.37a1 1 0 0 0-.84-.34 9.59 9.59 0 0 1-1.52 0 1 1 0 0 0-.84.34l-1.18 1.37A11.44 11.44 0 0 1 9 23.47l-.17-1.84a1 1 0 0 0-.47-.76A9 9 0 0 1 7.13 20a1 1 0 0 0-.89-.23l-1.73.4a10.91 10.91 0 0 1-.78-1.09l.91-1.58a1 1 0 0 0 .06-.88 9.33 9.33 0 0 1-.46-1.49 1 1 0 0 0-.57-.69L2 13.68V13v-.68"/><path d="M13 21a8 8 0 1 0-8-8 8 8 0 0 0 8 8m0-14a6 6 0 1 1-6 6 6 6 0 0 1 6-6M44.28 16.6l-2.61-2.35-1.34 1.49 3.33 3a1 1 0 0 0 1.4-.06l5.67-6-1.45-1.37z"/><path d="M12 16a1 1 0 0 0 .71-.29l4-4-1.41-1.42-3.3 3.3-1.29-1.29-1.41 1.41 2 2a1 1 0 0 0 .7.29M59.34 49.16a1 1 0 0 0 .59-.81 11.9 11.9 0 0 0 0-2.71 1 1 0 0 0-.59-.81l-1.56-.69c-.07-.24-.14-.47-.22-.7l.87-1.5a1 1 0 0 0 0-1 12.34 12.34 0 0 0-1.57-2.19 1 1 0 0 0-1-.31l-1.64.38-.56-.41-.16-1.74a1 1 0 0 0-.58-.82 11.69 11.69 0 0 0-2.49-.85 1 1 0 0 0-1 .33l-1.12 1.3h-.68l-1.12-1.3a1 1 0 0 0-1-.33 11.73 11.73 0 0 0-2.53.85 1 1 0 0 0-.58.82l-.16 1.74-.56.41-1.64-.38a1 1 0 0 0-1 .31A12.33 12.33 0 0 0 37.57 41a1 1 0 0 0 0 1l.87 1.5c-.08.23-.15.46-.22.7l-1.56.69a1 1 0 0 0-.59.81 11.9 11.9 0 0 0 0 2.71 1 1 0 0 0 .59.8l1.56.69c.07.24.14.47.22.7l-.87 1.5a1 1 0 0 0 0 1 12.2 12.2 0 0 0 1.57 2.2 1 1 0 0 0 1 .31l1.64-.38.56.41.16 1.74a1 1 0 0 0 .58.81 11.77 11.77 0 0 0 2.53.85 1 1 0 0 0 1-.33l1.12-1.3h.68l1.12 1.3a1 1 0 0 0 1 .33 11.76 11.76 0 0 0 2.47-.91 1 1 0 0 0 .58-.81l.16-1.74.56-.41 1.64.38a1 1 0 0 0 1-.31A12.25 12.25 0 0 0 58.43 53a1 1 0 0 0 0-1l-.87-1.5c.08-.22.15-.46.22-.7zm-2.82-.94a1 1 0 0 0-.57.69 8.3 8.3 0 0 1-.42 1.35 1 1 0 0 0 .06.88l.81 1.4a10.27 10.27 0 0 1-.65.91l-1.53-.35a1 1 0 0 0-.88.22 8.14 8.14 0 0 1-1.11.82 1 1 0 0 0-.47.76l-.15 1.63a9.76 9.76 0 0 1-1 .35l-1-1.22a1 1 0 0 0-.84-.34 8.56 8.56 0 0 1-1.38 0 1 1 0 0 0-.84.34l-1 1.22a9.59 9.59 0 0 1-1-.35l-.15-1.63a1 1 0 0 0-.47-.76 8.37 8.37 0 0 1-1.11-.82 1 1 0 0 0-.89-.22l-1.53.35a10.47 10.47 0 0 1-.65-.91l.81-1.4a1 1 0 0 0 .06-.88 8.4 8.4 0 0 1-.42-1.35 1 1 0 0 0-.57-.69L38 47.57V47v-.57l1.47-.65a1 1 0 0 0 .57-.69 8.33 8.33 0 0 1 .42-1.35 1 1 0 0 0-.06-.88l-.81-1.4a10.78 10.78 0 0 1 .65-.91l1.53.35a1 1 0 0 0 .89-.22 8.1 8.1 0 0 1 1.11-.82 1 1 0 0 0 .47-.76l.15-1.63a10.07 10.07 0 0 1 1-.34l1.05 1.22a1 1 0 0 0 .84.34 8.55 8.55 0 0 1 1.38 0 1 1 0 0 0 .84-.34l1-1.22a10 10 0 0 1 1 .34l.15 1.63a1 1 0 0 0 .47.76 8.13 8.13 0 0 1 1.11.82 1 1 0 0 0 .88.22l1.53-.35a10.57 10.57 0 0 1 .65.91l-.81 1.4a1 1 0 0 0-.06.88 8.43 8.43 0 0 1 .42 1.35 1 1 0 0 0 .57.69l1.47.65v1.14z"/><path d="M48 40a7 7 0 1 0 7 7 7 7 0 0 0-7-7m0 12a5 5 0 1 1 5-5 5 5 0 0 1-5 5"/><path d="M49.42 44.17L48 45.59l-1.41-1.42-1.42 1.42L46.59 47l-1.42 1.41 1.42 1.42L48 48.41l1.42 1.42 1.41-1.42L49.42 47l1.41-1.41-1.41-1.42z"/></g></svg>