<svg xmlns="http://www.w3.org/2000/svg" viewBox="0 0 432.67 468"><defs><clipPath id="a"><path fill="none" d="M0 0h432.67v468H0z"/></clipPath></defs><title>advantage-3</title><g clip-path="url(#a)" fill="#28245d" data-name="Layer 1"><path d="M62.61 185.74a40 40 0 0 0-40 40v83.14a40 40 0 0 0 40 40h99.77a40 40 0 0 0 40-40v-83.14a40 40 0 0 0-40-40zm43.58 20h17.93v33.09L106.19 253zm76.19 20v83.14a20 20 0 0 1-20 20H62.61a20 20 0 0 1-20-20v-83.14a20 20 0 0 1 20-20h23.58v67.93a10 10 0 0 0 16.2 7.84l37.93-30a10 10 0 0 0 3.8-7.84v-37.93h18.26a20 20 0 0 1 20 20M270.3 348.88h105.09a40 40 0 0 0 40-40v-83.14a40 40 0 0 0-40-40H270.3a40 40 0 0 0-40 40v83.14a40 40 0 0 0 40 40m43.58-143.14h23.26v32.7l-23.26 16.13zm-63.58 20a20 20 0 0 1 20-20h23.58v67.93a10 10 0 0 0 15.7 8.22l43.26-30a10 10 0 0 0 4.3-8.22v-37.93h18.26a20 20 0 0 1 20 20v83.14a20 20 0 0 1-20 20H270.3a20 20 0 0 1-20-20zM308.88 123.14V40a40 40 0 0 0-40-40H163.79a40 40 0 0 0-40 40v83.14a40 40 0 0 0 40 40h105.09a40 40 0 0 0 40-40M202 20h23.3v29.7L202 65.83zm-58.21 103.14V40a20 20 0 0 1 20-20H182v64.93a10 10 0 0 0 15.7 8.22l43.25-30a10 10 0 0 0 4.3-8.22V20h23.58a20 20 0 0 1 20 20v83.14a20 20 0 0 1-20 20H163.79a20 20 0 0 1-20-20M10 448a10 10 0 0 0 0 20h412.67a10 10 0 1 0 0-20h-59.23v-56.51h59.23a10 10 0 0 0 0-20H10a10 10 0 0 0 0 20h53.91V448zm73.91-56.51h259.53V448H83.91z"/></g></svg>