<svg xmlns="http://www.w3.org/2000/svg" viewBox="0 0 68 68"><title>advantage-1</title><g data-name="Слой 1" fill="#28245d"><path d="M42.5 64.5a3 3 0 0 1-3 3h-36a3 3 0 0 1-3-3v-36a3 3 0 0 1 3-3h36a3 3 0 0 1 3 3zm-2 0v-36a1 1 0 0 0-1-1h-36a1 1 0 0 0-1 1v36a1 1 0 0 0 1 1h36a1 1 0 0 0 1-1zm7-45.42l8.29-8.29a1 1 0 0 1 1.41 1.41l-8.29 8.3h5.59a1 1 0 0 1 0 2h-8a1 1 0 0 1-1-1v-8a1 1 0 0 1 2 0zM33.5.5a2 2 0 1 1-2 2 2 2 0 0 1 2-2zm-8 0a2 2 0 1 1-2 2 2 2 0 0 1 2-2zm16 0a2 2 0 1 1-2 2 2 2 0 0 1 2-2zm16 0a2 2 0 1 1-2 2 2 2 0 0 1 2-2zm-8 0a2 2 0 1 1-2 2 2 2 0 0 1 2-2zm8 40a2 2 0 1 1-2 2 2 2 0 0 1 2-2zm-8 0a2 2 0 1 1-2 2 2 2 0 0 1 2-2zm16 0a2 2 0 1 1-2 2 2 2 0 0 1 2-2zm0-16a2 2 0 1 1-2 2 2 2 0 0 1 2-2zm0-16a2 2 0 1 1-2 2 2 2 0 0 1 2-2zm0 8a2 2 0 1 1-2 2 2 2 0 0 1 2-2zm-40-8a2 2 0 1 1-2 2 2 2 0 0 1 2-2zm0 8a2 2 0 1 1-2 2 2 2 0 0 1 2-2zm40 16a2 2 0 1 1-2 2 2 2 0 0 1 2-2zm0-32a2 2 0 1 1-2 2 2 2 0 0 1 2-2z"/><path d="M39.5 68h-36A3.5 3.5 0 0 1 0 64.5v-36A3.5 3.5 0 0 1 3.5 25h36a3.5 3.5 0 0 1 3.5 3.5v36a3.5 3.5 0 0 1-3.5 3.5zm-36-42A2.5 2.5 0 0 0 1 28.5v36A2.5 2.5 0 0 0 3.5 67h36a2.5 2.5 0 0 0 2.5-2.5v-36a2.5 2.5 0 0 0-2.5-2.5zm36 40h-36A1.5 1.5 0 0 1 2 64.5v-36A1.5 1.5 0 0 1 3.5 27h36a1.5 1.5 0 0 1 1.5 1.5v36a1.5 1.5 0 0 1-1.5 1.5zm-36-38a.5.5 0 0 0-.5.5v36a.5.5 0 0 0 .5.5h36a.5.5 0 0 0 .5-.5v-36a.5.5 0 0 0-.5-.5zm62 17a2.5 2.5 0 1 1 2.5-2.5 2.5 2.5 0 0 1-2.5 2.5zm0-4a1.5 1.5 0 1 0 1.5 1.5 1.5 1.5 0 0 0-1.5-1.5zm-8 4a2.5 2.5 0 1 1 2.5-2.5 2.5 2.5 0 0 1-2.5 2.5zm0-4a1.5 1.5 0 1 0 1.5 1.5 1.5 1.5 0 0 0-1.5-1.5zm-8 4a2.5 2.5 0 1 1 2.5-2.5 2.5 2.5 0 0 1-2.5 2.5zm0-4a1.5 1.5 0 1 0 1.5 1.5 1.5 1.5 0 0 0-1.5-1.5zm16-4a2.5 2.5 0 1 1 2.5-2.5 2.5 2.5 0 0 1-2.5 2.5zm0-4a1.5 1.5 0 1 0 1.5 1.5 1.5 1.5 0 0 0-1.5-1.5zm0-4a2.5 2.5 0 1 1 2.5-2.5 2.5 2.5 0 0 1-2.5 2.5zm0-4a1.5 1.5 0 1 0 1.5 1.5 1.5 1.5 0 0 0-1.5-1.5zm-11-2h-8a1.5 1.5 0 0 1-1.5-1.5v-8a1.5 1.5 0 0 1 3 0v4.38l7.44-7.44a1.5 1.5 0 0 1 2.12 2.12L50.12 20h4.38a1.5 1.5 0 0 1 0 3zm-8-10a.5.5 0 0 0-.5.5v8a.5.5 0 0 0 .5.5h8a.5.5 0 0 0 0-1h-6.79l9.15-9.15a.5.5 0 0 0-.71-.71L47 20.29V13.5a.5.5 0 0 0-.5-.5zm19 8a2.5 2.5 0 1 1 2.5-2.5 2.5 2.5 0 0 1-2.5 2.5zm0-4a1.5 1.5 0 1 0 1.5 1.5 1.5 1.5 0 0 0-1.5-1.5zm-40 4a2.5 2.5 0 1 1 2.5-2.5 2.5 2.5 0 0 1-2.5 2.5zm0-4a1.5 1.5 0 1 0 1.5 1.5 1.5 1.5 0 0 0-1.5-1.5zm40-4a2.5 2.5 0 1 1 2.5-2.5 2.5 2.5 0 0 1-2.5 2.5zm0-4a1.5 1.5 0 1 0 1.5 1.5A1.5 1.5 0 0 0 65.5 9zm-40 4a2.5 2.5 0 1 1 2.5-2.5 2.5 2.5 0 0 1-2.5 2.5zm0-4a1.5 1.5 0 1 0 1.5 1.5A1.5 1.5 0 0 0 25.5 9zm40-4A2.5 2.5 0 1 1 68 2.5 2.5 2.5 0 0 1 65.5 5zm0-4A1.5 1.5 0 1 0 67 2.5 1.5 1.5 0 0 0 65.5 1zm-8 4A2.5 2.5 0 1 1 60 2.5 2.5 2.5 0 0 1 57.5 5zm0-4A1.5 1.5 0 1 0 59 2.5 1.5 1.5 0 0 0 57.5 1zm-8 4A2.5 2.5 0 1 1 52 2.5 2.5 2.5 0 0 1 49.5 5zm0-4A1.5 1.5 0 1 0 51 2.5 1.5 1.5 0 0 0 49.5 1zm-8 4A2.5 2.5 0 1 1 44 2.5 2.5 2.5 0 0 1 41.5 5zm0-4A1.5 1.5 0 1 0 43 2.5 1.5 1.5 0 0 0 41.5 1zm-8 4A2.5 2.5 0 1 1 36 2.5 2.5 2.5 0 0 1 33.5 5zm0-4A1.5 1.5 0 1 0 35 2.5 1.5 1.5 0 0 0 33.5 1zm-8 4A2.5 2.5 0 1 1 28 2.5 2.5 2.5 0 0 1 25.5 5zm0-4A1.5 1.5 0 1 0 27 2.5 1.5 1.5 0 0 0 25.5 1z"/></g></svg>