<svg xmlns="http://www.w3.org/2000/svg" viewBox="0 0 62 62"><defs><clipPath id="a"><path fill="none" d="M0 0h62v62H0z"/></clipPath></defs><title>advantage-2</title><g data-name="Layer 1" fill="#28245d"><path d="M48 22H14v12h34zm-2 10H16v-8h30zM58 27h2v16h-2zm-4-4v2h2v2h-2v2h2v12h-2v2h2v3h-2v2h4v-3h4V25h-4v-2zM2 27h2v16H2zm2-4v2H0v20h4v3h4v-2H6v-3h2v-2H6V29h2v-2H6v-2h2v-2zM30 58h18V48H30zm2-8h14v6H32z"/><path d="M38 52h2v2h-2zM42 52h2v2h-2zM34 52h2v2h-2zM28 37H14v14h14zm-2 4h-2v-2h2zm-6 2h2v2h-2zm2 6h-2v-2h2zm-4-4h-2v-2h2zm2-6h2v2h-2zm4 4h2v2h-2zm-6-2h-2v-2h2zm-2 6h2v2h-2zm8 0h2v2h-2zM32 38h2v2h-2zM38 38h2v2h-2zM44 38h2v2h-2zM32 44h2v2h-2zM38 44h2v2h-2zM44 44h2v2h-2z"/><g clip-path="url(#a)"><path d="M31 31a3 3 0 1 0-3-3 3 3 0 0 0 3 3m0-4a1 1 0 1 1-1 1 1 1 0 0 1 1-1M22 31a3 3 0 1 0-3-3 3 3 0 0 0 3 3m0-4a1 1 0 1 1-1 1 1 1 0 0 1 1-1M40 31a3 3 0 1 0-3-3 3 3 0 0 0 3 3m0-4a1 1 0 1 1-1 1 1 1 0 0 1 1-1"/><path d="M44 11.19a6 6 0 1 0-6 0V18h-7v-4h-5V2a2 2 0 0 0-2-2h-4a2 2 0 0 0-2 2v12h-5v4h-3v44h42V18h-8zM41 2a4 4 0 1 1-4 4 4 4 0 0 1 4-4m-1 9.91a5.6 5.6 0 0 0 2 0V18h-2zM24 8h-4V6h4zm0-4h-4V2h4zm-4 6h4v4h-4zm-5 6h14v2H15zm35 44H12V20h38z"/></g></g></svg>