<svg xmlns="http://www.w3.org/2000/svg" viewBox="0 0 60 60"><defs><clipPath id="a"><path fill="none" d="M0 0h60v60H0z"/></clipPath></defs><title>advantage-5</title><g clip-path="url(#a)" fill="#28245d" data-name="Layer 1"><path d="M9 60h22v-2H9a7 7 0 0 1 0-14h6v-2H9a9 9 0 0 0-7 3.36V15a7 7 0 0 1 7-7h4V6H9a9 9 0 0 0-9 9v36a9 9 0 0 0 9 9"/><path d="M7 51a5 5 0 1 0 5-5 5 5 0 0 0-5 5m8 0a3 3 0 1 1-3-3 3 3 0 0 1 3 3M24 56a5 5 0 1 0-5-5 5 5 0 0 0 5 5m0-8a3 3 0 1 1-3 3 3 3 0 0 1 3-3M36 46a5 5 0 1 0 5 5 5 5 0 0 0-5-5m0 8a3 3 0 1 1 3-3 3 3 0 0 1-3 3M53 51a5 5 0 1 0-5 5 5 5 0 0 0 5-5m-8 0a3 3 0 1 1 3 3 3 3 0 0 1-3-3M17 42h2v2h-2zM21 42h2v2h-2zM25 42h2v2h-2zM29 42h2v2h-2zM41 58h2v2h-2zM37 58h2v2h-2zM33 58h2v2h-2z"/><path d="M51 6H19v2h32a7 7 0 0 1 7 7v30.36A9 9 0 0 0 51 42H33v2h18a7 7 0 0 1 0 14h-6v2h6a9 9 0 0 0 9-9V15a9 9 0 0 0-9-9"/><path d="M40 38a1 1 0 0 0 1-1V22a1 1 0 0 0-1-1H30a1 1 0 0 0-1 1v15a1 1 0 0 0 1 1zm-1-2h-8v-8h8zm-8-13h8v3h-8zM54 38a1 1 0 0 0 1-1V22a1 1 0 0 0-1-1H44a1 1 0 0 0-1 1v15a1 1 0 0 0 1 1zm-1-2h-8v-8h8zm-8-13h8v3h-8zM15 0v13h-4a1 1 0 0 0-.71.29l-4 4A1 1 0 0 0 6 18v8a1 1 0 0 0 .4.8l3.6 2.7V34a1 1 0 0 0 1 1h10a1 1 0 0 0 1-1v-4.5l3.6-2.7a1 1 0 0 0 .4-.8v-8a1 1 0 0 0-.29-.71l-4-4A1 1 0 0 0 21 13h-4V0zm5 23h-8v-3h8zm0 10h-8v-8h8v8zm4-14.59v7.09L22 27v-8a1 1 0 0 0-1-1H11a1 1 0 0 0-1 1v8l-2-1.5v-7.09L11.41 15h9.17z"/></g></svg>