<svg xmlns="http://www.w3.org/2000/svg" viewBox="0 0 60 60"><defs><clipPath id="a"><path fill="none" d="M0 0h60v60H0z"/></clipPath></defs><title>selection-3</title><g clip-path="url(#a)" fill="#28245d" data-name="Layer 1"><path d="M51 42a9 9 0 0 0-9 9v1h6v-1a3 3 0 0 1 6 0c0 1.82-1.57 3-4 3H40V0H18v10H2v44H0v6h51a9 9 0 0 0 0-18M20 2h18v52h-2V44H22v10h-2zm8 52h-4v-8h4zm6 0h-4v-8h4zM4 12h14v42H4zm47 46H2v-2h48c3.53 0 6-2.06 6-5a5 5 0 0 0-9.9-1h-2a7 7 0 1 1 6.9 8"/><path d="M6 14h2v2H6zM10 14h2v2h-2zM14 14h2v2h-2zM6 18h2v2H6zM10 18h2v2h-2zM14 18h2v2h-2zM6 22h2v2H6zM10 22h2v2h-2zM14 22h2v2h-2zM6 26h2v2H6zM10 26h2v2h-2zM14 26h2v2h-2zM6 30h2v2H6zM10 30h2v2h-2zM14 30h2v2h-2zM6 34h2v2H6zM10 34h2v2h-2zM14 34h2v2h-2zM6 38h2v2H6zM10 38h2v2h-2zM14 38h2v2h-2zM6 42h2v2H6zM10 42h2v2h-2zM14 42h2v2h-2zM6 46h2v2H6zM10 46h2v2h-2zM14 46h2v2h-2zM22 4h2v2h-2zM26 4h2v2h-2zM30 4h2v2h-2zM22 8h2v2h-2zM26 8h2v2h-2zM30 8h2v2h-2zM22 12h2v2h-2zM26 12h2v2h-2zM30 12h2v2h-2zM6 50h2v2H6zM10 50h2v2h-2zM14 50h2v2h-2zM34 4h2v2h-2zM34 8h2v2h-2zM34 12h2v2h-2zM22 16h2v2h-2zM26 16h2v2h-2zM30 16h2v2h-2zM22 20h2v2h-2zM26 20h2v2h-2zM30 20h2v2h-2zM22 24h2v2h-2zM26 24h2v2h-2zM30 24h2v2h-2zM34 16h2v2h-2zM34 20h2v2h-2zM34 24h2v2h-2zM22 28h2v2h-2zM26 28h2v2h-2zM22 32h2v2h-2zM26 32h2v2h-2zM34 28h2v2h-2zM34 32h2v2h-2zM30 28h2v2h-2zM30 32h2v2h-2zM22 36h2v2h-2zM26 36h2v2h-2zM22 40h2v2h-2zM26 40h2v2h-2zM34 36h2v2h-2zM34 40h2v2h-2zM30 36h2v2h-2zM30 40h2v2h-2z"/></g></svg>