<svg xmlns="http://www.w3.org/2000/svg" viewBox="0 0 15 30"><defs><clipPath id="a"><path fill="none" d="M0 0h15v30H0z"/></clipPath></defs><title>selection-5</title><g clip-path="url(#a)" data-name="Layer 1"><path d="M4.5 0a2 2 0 1 0 2 2 2 2 0 0 0-2-2m0 1a1 1 0 1 1-1 1 1 1 0 0 1 1-1M11 2.5A1.5 1.5 0 1 0 12.5 4 1.51 1.51 0 0 0 11 2.5m0 1a.5.5 0 1 1-.5.5.49.49 0 0 1 .5-.5M4 6a1.5 1.5 0 0 0 0 3h.5v6.68a7.51 7.51 0 1 0 6 0V9h.5a1.5 1.5 0 0 0 0-3zm0 1h7a.5.5 0 0 1 0 1H4a.5.5 0 0 1 0-1m1.5 2h4v7a.5.5 0 0 0 .32.47 6.48 6.48 0 0 1 4 4.56H7.4a.5.5 0 0 0 0 1H14v.5a6.5 6.5 0 0 1-13 0v-.5h.7a.5.5 0 1 0 0-1h-.51a6.48 6.48 0 0 1 4-4.56.5.5 0 0 0 .31-.47v-1H8a.5.5 0 1 0 0-1H5.5v-1H7a.5.5 0 0 0 0-1H5.5v-1H8a.5.5 0 0 0 0-1H5.5zM7 17a1.5 1.5 0 1 0 1.5 1.5A1.51 1.51 0 0 0 7 17m0 1a.5.5 0 1 1-.5.5.49.49 0 0 1 .5-.5m-2.5 3a2 2 0 1 0 2 2 2 2 0 0 0-2-2m0 1a1 1 0 1 1-1 1 1 1 0 0 1 1-1m6.5 1a1.5 1.5 0 1 0 1.5 1.5A1.51 1.51 0 0 0 11 23m0 1a.5.5 0 1 1-.5.5.49.49 0 0 1 .5-.5" fill="#28245d"/></g></svg>