<svg xmlns="http://www.w3.org/2000/svg" viewBox="0 0 48 47.97"><defs><clipPath id="a"><path fill="none" d="M0 0h48v47.97H0z"/></clipPath></defs><title>selection-7</title><g clip-path="url(#a)" data-name="Layer 1"><path d="M13 46h35v2H0v-2zm32.8-28l-3.5 14a1.74 1.74 0 0 1 1.1.6A2 2 0 0 1 44 34v6h2v-2h2v6h-2v-2h-6.1a5 5 0 0 1-9.8 0H28a1 1 0 0 1-.9-.7l-.8-2.3h-4.6l-.8 2.3a1 1 0 0 1-.9.7h-2.1a5 5 0 0 1-9.8 0H2v2H0v-6h2v2h2v-6a2 2 0 0 1 .6-1.4 2.38 2.38 0 0 1 1.1-.6L2.2 18H2a2 2 0 0 1-1.4-.6A2 2 0 0 1 0 16v-2a2 2 0 0 1 .6-1.4A2 2 0 0 1 2 12h1v-1a.91.91 0 0 1 .3-.7l4-4A.91.91 0 0 1 8 6h3a.91.91 0 0 1 .7.3l.1.1 3.3-5A1.8 1.8 0 0 1 16 1h3a1.07 1.07 0 0 1 .6.2L21.8 3l1.8-.9c.1-.1.2-.1.4-.1h3.7L30.4.17a1.18 1.18 0 0 1 1-.1l2 1c.2.1.4.3.4.4L35.6 5H39a.91.91 0 0 1 .7.3l1.8 1.8 2.8.9a1.2 1.2 0 0 1 .7 1v2h-2V9.67l-2.3-.8a.75.75 0 0 1-.4-.2L38.6 7H35a1 1 0 0 1-.9-.6l-1.9-3.7-1.2-.63-2.5 1.7A.76.76 0 0 1 28 4h-3.8l-.8.4 2.2 1.8a.91.91 0 0 1 .4.8v2h-2V7.47L18.6 3h-2.1l-3.7 5.6a.84.84 0 0 1-.7.4 1.14 1.14 0 0 1-.8-.3l-.7-.7H8.4L5 11.37V12h41a2.05 2.05 0 0 1 2 2v2a2.05 2.05 0 0 1-2 2zm-30 24H13v-2h2.8a2.91 2.91 0 0 0-2.8-2 3 3 0 1 0 0 6 2.91 2.91 0 0 0 2.8-2M38 41a3 3 0 0 0-3-3 2.91 2.91 0 0 0-2.8 2H35v2h-2.8a2.91 2.91 0 0 0 2.8 2 3 3 0 0 0 3-3m4-1v-6H6v6h2.1a5 5 0 0 1 9.8 0h1.4l.8-2.3a1 1 0 0 1 .9-.7h6a1 1 0 0 1 .9.7l.8 2.3h1.4a5 5 0 0 1 9.8 0zm1.7-22H9v-2h37v-2H2v2h5v2H4.3l3.5 14h32.4z" fill="#28245d"/></g></svg>