<svg xmlns="http://www.w3.org/2000/svg" viewBox="0 0 87.1 83.8"><defs><clipPath id="a"><path fill="none" d="M0 0h87.1v83.8H0z"/></clipPath></defs><title>selection-11</title><g clip-path="url(#a)" fill="#28245d" data-name="Layer 1"><path d="M63.9 68.9v.8a.1.1 0 0 0 .1.1.1.1 0 0 0 .1.1l.1.1.1.1.1.1.1.1.1.1a.1.1 0 0 1 .1.1c.1 0 .1 0 .2.1h10a7.85 7.85 0 0 0 7.9-7.8 1.54 1.54 0 0 0-1.5-1.5H65.2a.1.1 0 0 0-.1.1.1.1 0 0 0-.1.1l-.1.1-.1.1-.1.1-.1.1-.1.1a.1.1 0 0 1-.1.1.1.1 0 0 1-.1.1v.7c0 .5.1 1 .1 1.5a22.16 22.16 0 0 1-.5 4.5m14.5-2.6a4.76 4.76 0 0 1-3.4 1.4h-7.9c.1-1 .2-2.1.2-3.2v-.2h12.3a4.67 4.67 0 0 1-1.2 2M60.3 50.7a.1.1 0 0 1-.1.1v1a28.4 28.4 0 0 1 .2.2 22 22 0 0 1 3 5.9.77.77 0 0 0 .2.4v.1l.3.3c.1.1.2.1.4.2h.1c.1 0 .3.1.4.1h14.5a7.83 7.83 0 0 0 7.8-7.9 1.54 1.54 0 0 0-1.5-1.5H61.2c-.1 0-.1 0-.2.1a.1.1 0 0 0-.1.1c-.1 0-.1.1-.2.1l-.1.1-.1.1-.1.1-.1.1zm19 5.6H65.9a15 15 0 0 0-1.6-3.4h19.6a4.86 4.86 0 0 1-4.6 3.4M7.9 59.3h14.5a.6.6 0 0 0 .4-.1h.1a.76.76 0 0 0 .4-.2l.3-.3v-.1c.1-.1.1-.2.2-.4a21.9 21.9 0 0 1 3-5.9l.1-.1a.1.1 0 0 1 .1-.1v-1a4936.17 4936.17 0 0 0-.2-.2l-.1-.1-.1-.1-.1-.1-.1-.1a.35.35 0 0 0-.2-.1.1.1 0 0 1-.1-.1.31.31 0 0 1-.2-.1H1.5A1.54 1.54 0 0 0 0 51.7a7.93 7.93 0 0 0 7.9 7.6m15-6.4a35.39 35.39 0 0 0-1.6 3.4H7.9a4.74 4.74 0 0 1-4.6-3.4zM22.9 62.7v-.4a.1.1 0 0 0-.1-.1.1.1 0 0 0-.1-.1l-.1-.1-.1-.1-.1-.1-.1-.1-.1-.1a14.15 14.15 0 0 0-.2-.2H5.8a1.54 1.54 0 0 0-1.5 1.5 7.92 7.92 0 0 0 7.9 7.9h10c.1 0 .1 0 .2-.1a14.16 14.16 0 0 0 .2-.2l.1-.1.1-.1.1-.1.1-.1a.1.1 0 0 1 .1-.1l.1-.1v-.8a21.2 21.2 0 0 1-.5-4.4 6.63 6.63 0 0 1 .1-1.5v-.1a.6.6 0 0 0 .1-.4M7.6 64.3h12.2v.2c0 1.1.1 2.1.2 3.2h-7.9a4.71 4.71 0 0 1-4.5-3.4M18.3 82.1h10.2c.1 0 .1 0 .2-.1h.1a.35.35 0 0 0 .2-.1l.1-.1c.1 0 .1-.1.2-.1a2.14 2.14 0 0 0 .3-.5.9.9 0 0 0 .1-.5.75.75 0 0 0-.1-.5c-.1-.2-.2-.3-.3-.5a19.06 19.06 0 0 1-4.3-5.9.1.1 0 0 0-.1-.1l-.1-.1-.1-.1-.1-.1-.1-.1-.1-.1a14.12 14.12 0 0 1-.2-.2H12a1.54 1.54 0 0 0-1.5 1.5 7.77 7.77 0 0 0 7.8 7.6m4.4-6.3a24.63 24.63 0 0 0 2.2 3.4h-6.5a4.74 4.74 0 0 1-4.6-3.4zM57.6 81.1a2.13 2.13 0 0 0 .3.5c0 .1.1.1.2.1l.1.1a.31.31 0 0 0 .2.1h.1c.1 0 .1 0 .2.1h10.2a7.85 7.85 0 0 0 7.9-7.9 1.54 1.54 0 0 0-1.5-1.5H63.1a28.4 28.4 0 0 0-.2.2l-.1.1-.1.1-.1.1-.1.1-.1.1a.1.1 0 0 1-.1.1 23 23 0 0 1-4.3 5.9 2.18 2.18 0 0 0-.3.5.91.91 0 0 0-.1.5c-.1.5-.1.7 0 .8m14.7-3.4a4.76 4.76 0 0 1-3.4 1.4h-6.5a19.88 19.88 0 0 0 2.2-3.4h9a5.33 5.33 0 0 1-1.3 2"/><path d="M28.5 31.8l13.6 8v5.5a19.3 19.3 0 1 0 3 0v-5.5l13.6-8a1.46 1.46 0 0 0 .7-1.3v-29A1.54 1.54 0 0 0 57.9 0H29.3a1.54 1.54 0 0 0-1.5 1.5v29a1.27 1.27 0 0 0 .7 1.3m15.1 5.4l-4.4-2.6V3h8.9v31.6zm16.3 27.3a16.3 16.3 0 1 1-16.3-16.3 16.3 16.3 0 0 1 16.3 16.3m-3.5-34.8L51 32.9V3h5.4zM30.8 3h5.4v29.8l-5.4-3.2z"/><path d="M42.3 55.1l-2.5 5.1-5.6.8a1.55 1.55 0 0 0-1.2 1 1.44 1.44 0 0 0 .4 1.5l4 3.9-1 5.6a1.5 1.5 0 0 0 .6 1.5 1.54 1.54 0 0 0 1.6.1l5-2.6 5 2.6a1.86 1.86 0 0 0 .7.2 1.61 1.61 0 0 0 .9-.3 1.43 1.43 0 0 0 .6-1.5l-1-5.6 4-3.9a1.44 1.44 0 0 0 .4-1.5 1.55 1.55 0 0 0-1.2-1l-5.6-.8-2.5-5.1a1.56 1.56 0 0 0-1.3-.8 1.44 1.44 0 0 0-1.3.8m2.8 7.1a1.55 1.55 0 0 0 1.1.8l3.4.5-2.4 2.4a1.25 1.25 0 0 0-.4 1.3l.6 3.3-3-1.6a1.33 1.33 0 0 0-1.4 0l-3 1.6.6-3.3a1.48 1.48 0 0 0-.4-1.3l-2.6-2.4L41 63a1.55 1.55 0 0 0 1.1-.8l1.5-3z"/></g></svg>