<svg xmlns="http://www.w3.org/2000/svg" viewBox="0 0 21.31 23.88"><defs><clipPath id="a"><path fill="none" d="M0 0h21.31v23.88H0z"/></clipPath></defs><title>selection-8</title><g clip-path="url(#a)" fill="#28245d" data-name="Layer 1"><path d="M2.42 23.88h5.92a2.47 2.47 0 0 0 2-1.24 3.21 3.21 0 0 0 2.29 1.24 3.61 3.61 0 0 0 1.18-.18 2.85 2.85 0 0 1 1.73 0 3.61 3.61 0 0 0 1.18.18 3.83 3.83 0 0 0 2.92-2.06c1.29-1.95 2.17-5.19 1.25-7.37A4.12 4.12 0 0 0 17.32 12a4 4 0 0 0-1.62.33 3.3 3.3 0 0 1-.6.19 3.45 3.45 0 0 0-1.51-2.57.402.402 0 1 0-.43.68 2.63 2.63 0 0 1 1.13 1.88 3.58 3.58 0 0 1-.55-.18 4 4 0 0 0-1.62-.33 3.64 3.64 0 0 0-1.36.3V9.78a4.21 4.21 0 0 0-.54-2.09l-.55-1c-.29-.54-.58-1.09-.89-1.62a2.49 2.49 0 0 1-.36-1.37A2 2 0 0 0 9.6 1.89 1.7 1.7 0 0 0 8 0H2.79a1.72 1.72 0 0 0-1.64 1.89A2 2 0 0 0 2.32 3.7 2.32 2.32 0 0 1 2 5.06c-.31.53-.6 1.08-.89 1.62l-.55 1A4.19 4.19 0 0 0 0 9.78v11.28a2.53 2.53 0 0 0 2.42 2.8m7.53-11.15a4.05 4.05 0 0 0-1.45 1.75 5.9 5.9 0 0 0-.34 2.8H.8v-.47-5.47h9.15zM8.28 23.08H2.47a1.74 1.74 0 0 1-1.67-2v-3h7.48a10.44 10.44 0 0 0 1.48 3.77l.07.1a1.67 1.67 0 0 1-1.54 1.16m5.17-10A3 3 0 0 0 16 13a3.23 3.23 0 0 1 1.33-.28 3.29 3.29 0 0 1 2.88 2c.78 1.85 0 4.81-1.18 6.61-.72 1.08-1.54 1.7-2.25 1.7a2.83 2.83 0 0 1-.95-.14 3.63 3.63 0 0 0-2.19 0 2.85 2.85 0 0 1-.95.14c-.72 0-1.54-.62-2.25-1.7-1.19-1.8-2-4.77-1.18-6.62a3.3 3.3 0 0 1 1.26-1.49 3.06 3.06 0 0 1 1.59-.5 3.22 3.22 0 0 1 1.33.28M2.87.81h5c.39 0 .92.2.92 1.09a1.14 1.14 0 0 1-.62 1h-5.6a1.14 1.14 0 0 1-.62-1C2 1 2.48.85 2.87.81M1.24 8.08l.55-1c.28-.53.57-1.07.87-1.59a3.15 3.15 0 0 0 .44-1.74h4.54a3.14 3.14 0 0 0 .44 1.74c.3.53.59 1.06.87 1.6l.55 1a3.42 3.42 0 0 1 .44 1.7v.74H.81v-.74a3.43 3.43 0 0 1 .44-1.7"/><path d="M5.38 16.35a1.56 1.56 0 0 0 1.56-1.56 6 6 0 0 0-1.24-2.4.41.41 0 0 0-.64 0 6 6 0 0 0-1.24 2.4 1.56 1.56 0 0 0 1.56 1.56m0-3a4.34 4.34 0 0 1 .76 1.47.76.76 0 1 1-1.51 0 4.33 4.33 0 0 1 .76-1.47"/></g></svg>