<svg xmlns="http://www.w3.org/2000/svg" viewBox="0 0 87.26 78.66"><defs><clipPath id="a"><path fill="none" d="M0 0h87.26v78.66H0z"/></clipPath></defs><title>selection-13</title><g clip-path="url(#a)" data-name="Layer 1"><path d="M62.9.9h-.2a28.9 28.9 0 0 0-18.4 6.9C38.5 2.6 32.9 0 27.8 0A25.9 25.9 0 0 0 9.1 7.9 26.9 26.9 0 0 0 2 21.7a3 3 0 0 0 5.9 1.1A20.9 20.9 0 0 1 13.5 12a19.9 19.9 0 0 1 14.4-6.1c4 0 9 2.7 14.3 7.9a3.2 3.2 0 0 0 4.5 0 23.3 23.3 0 0 1 16.3-7 17 17 0 0 1 12.3 5.1 21.1 21.1 0 0 1 6 14.8 21.71 21.71 0 0 1-1.2 6.9H57.5a3 3 0 0 0-2.2.9l-9.1 9.6-10.4-23.5a3 3 0 0 0-5.3-.4l-8.3 13.6H3a3 3 0 0 0 0 6h20.9a3 3 0 0 0 2.5-1.5l6.2-10 10 22.6a3 3 0 0 0 2.2 1.7h.5a3 3 0 0 0 2.2-.9l11.3-12h18l-1.5 1.8-31 30-24.4-23.7a3.005 3.005 0 0 0-4.2 4.3l26.6 25.7a3 3 0 0 0 4.2 0l33.1-32a27.4 27.4 0 0 0 0-38A22.9 22.9 0 0 0 62.9.9" fill="#28245d"/></g></svg>