<svg xmlns="http://www.w3.org/2000/svg" viewBox="0 0 46.26 60"><defs><clipPath id="a"><path fill="none" d="M0 0h46.26v60H0z"/></clipPath></defs><title>selection-14</title><g clip-path="url(#a)" fill="#28245d" data-name="Layer 1"><path d="M6.5 49a4.5 4.5 0 1 0 0 9h31a4.5 4.5 0 1 0 0-9zm31 11h-31a6.5 6.5 0 1 1 0-13h31a6.5 6.5 0 1 1 0 13"/><path d="M7.5 52A1.5 1.5 0 1 0 9 53.5 1.5 1.5 0 0 0 7.5 52m0 5a3.5 3.5 0 1 1 3.5-3.5A3.5 3.5 0 0 1 7.5 57M36.5 52a1.5 1.5 0 1 0 1.5 1.5 1.5 1.5 0 0 0-1.5-1.5m0 5a3.5 3.5 0 1 1 3.5-3.5 3.5 3.5 0 0 1-3.5 3.5M18 47h8v-1h-8zm9 2H17a1 1 0 0 1-1-1v-3a1 1 0 0 1 1-1h10a1 1 0 0 1 1 1v3a1 1 0 0 1-1 1"/><path d="M2 44h28V33.19A5.19 5.19 0 0 0 24.81 28H17a1 1 0 0 0-1 1v8a1 1 0 0 1-1 1H4.08A2.08 2.08 0 0 0 2 40.08zm29 2H1a1 1 0 0 1-1-1v-4.92A4.08 4.08 0 0 1 4.08 36H14v-7a3 3 0 0 1 3-3h7.81A7.19 7.19 0 0 1 32 33.19V45a1 1 0 0 1-1 1"/><path d="M2 40h4a2 2 0 0 0 2-2H4.08A2.08 2.08 0 0 0 2 40m4 2H1a1 1 0 0 1-1-1v-.92A4.08 4.08 0 0 1 4.08 36H9a1 1 0 0 1 1 1v1a4 4 0 0 1-4 4M21 28v6.15A3.08 3.08 0 0 0 23 37l7 2.54v-6.35a5.24 5.24 0 0 0-2.31-4.32 5.37 5.37 0 0 0-3-.87zm10 14a1 1 0 0 1-.34-.06l-8.32-3A5.08 5.08 0 0 1 19 34.15V27a1 1 0 0 1 1-1h4.65a7.35 7.35 0 0 1 4.17 1.21 7.25 7.25 0 0 1 3.18 6V41a1 1 0 0 1-1 1M10.66 55h22.68a3.48 3.48 0 0 1 0-3H10.66a3.48 3.48 0 0 1 0 3M8 55.95zM36 57H8a1 1 0 0 1-1-1 1.06 1.06 0 0 1 .8-1 1.5 1.5 0 0 0 0-3 1 1 0 0 1-.8-1 1 1 0 0 1 1-1h28a1 1 0 0 1 1 1 1.05 1.05 0 0 1-.8 1 1.5 1.5 0 0 0 0 2.94 1 1 0 0 1 .8 1A1 1 0 0 1 36 57M21.51 24a1 1 0 0 1-.13-2l8.47-1.13-.47-7.33a1 1 0 0 1 .87-1.06l6.5-.83-.44-5.54a1 1 0 1 1 2-.16l.52 6.49a1 1 0 0 1-.83 1.13l-6.52.83.47 7.32a1 1 0 0 1-.95 1.06L21.65 24h-.13"/><path d="M42.26 2a2 2 0 1 0 2 2 2 2 0 0 0-2-2m0 6a4 4 0 1 1 4-4 4 4 0 0 1-4 4"/><path d="M20.13 26h4.68a7 7 0 0 1 1.6.19l14-18.68A4.06 4.06 0 0 1 38.79 6zm6.67 2.34a1 1 0 0 1-.32-.05 5.19 5.19 0 0 0-1.67-.29h-7a1 1 0 0 1-.73-1.68l21.43-23a1 1 0 0 1 1.75.68 2 2 0 0 0 1.84 2 1 1 0 0 1 .72 1.6L27.6 27.94a1 1 0 0 1-.8.4M44 28h-4a1 1 0 0 1 0-2h4a1 1 0 1 1 0 2"/><path d="M42 37a4 4 0 0 1-4-4 1 1 0 0 1 2 0 2 2 0 1 0 2-2 1 1 0 0 1-1-1V7a1 1 0 0 1 1-1 1 1 0 0 1 1 1v22.15A4 4 0 0 1 42 37"/></g></svg>