<svg xmlns="http://www.w3.org/2000/svg" viewBox="0 0 101.5 101.5"><title>selection-1</title><g data-name="Слой 1" fill="#28245d"><path d="M87.35.75h-73.2a13.4 13.4 0 0 0-13.4 13.4 13.55 13.55 0 0 0 12.2 13.4v72a1.16 1.16 0 0 0 1.2 1.2h85.4a1.16 1.16 0 0 0 1.2-1.2v-85.4A13.4 13.4 0 0 0 87.35.75zm11 13.4a11 11 0 1 1-11-11 11 11 0 0 1 11 11zm-95.2 0a11 11 0 0 1 11-11h65.5a13.19 13.19 0 0 0-5.7 11 13.58 13.58 0 0 0 5.7 11h-65.5a11 11 0 0 1-11-11zm95.2 36.6a11 11 0 1 1-11-11 11 11 0 0 1 11 11zm-24.4 0a13.73 13.73 0 0 0 5.7 11h-41.1a11 11 0 0 1 0-22h41.1a13.46 13.46 0 0 0-5.7 11zm24.4 47.6h-58.6v-34.2h47.6a13.73 13.73 0 0 0 11-5.7zm0-55.3a13.19 13.19 0 0 0-11-5.7h-48.8a13.4 13.4 0 0 0-13.4 13.4 13.55 13.55 0 0 0 12.2 13.4v34.2h-22v-70.8h72a13.73 13.73 0 0 0 11-5.7z"/><path d="M99.55 101.5h-85.4a1.91 1.91 0 0 1-2-2V28.21a14.17 14.17 0 0 1 2-28.21h73.2a14.17 14.17 0 0 1 14.15 14.15v85.4a1.91 1.91 0 0 1-1.95 1.95zm-85.4-100A12.68 12.68 0 0 0 13 26.8l.67.07v72.68a.41.41 0 0 0 .45.45h85.4a.41.41 0 0 0 .45-.45v-85.4A12.66 12.66 0 0 0 87.35 1.5zM99.1 99.1H39V63.4h48.35a13 13 0 0 0 10.4-5.4l1.35-1.84zm-58.6-1.5h57.1V60.49a14.41 14.41 0 0 1-10.25 4.41H40.5zm-2.4 1.5H14.6V26.8h72.75a13 13 0 0 0 10.4-5.39l1.35-1.84v25.9l-1.37-2a12.37 12.37 0 0 0-10.38-5.37h-48.8a12.68 12.68 0 0 0-1.12 25.3l.67.07zm-22-1.5h20.5V64.81a14.17 14.17 0 0 1 2-28.21h48.8a13.91 13.91 0 0 1 10.2 4.33v-17a14.41 14.41 0 0 1-10.25 4.37H16.1zm71.25-35.1A11.75 11.75 0 1 1 99.1 50.75 11.76 11.76 0 0 1 87.35 62.5zm0-22A10.25 10.25 0 1 0 97.6 50.75 10.26 10.26 0 0 0 87.35 40.5zm-5.41 22H38.55a11.75 11.75 0 0 1 0-23.5H82l-1.9 1.36a12.65 12.65 0 0 0-5.4 10.39 13 13 0 0 0 5.39 10.4zm-43.39-22a10.25 10.25 0 0 0 0 20.5h39.06a14.41 14.41 0 0 1-4.41-10.25 14.06 14.06 0 0 1 4.37-10.25zm48.8-14.6A11.75 11.75 0 1 1 99.1 14.15 11.76 11.76 0 0 1 87.35 25.9zm0-22A10.25 10.25 0 1 0 97.6 14.15 10.26 10.26 0 0 0 87.35 3.9zm-5.41 22H14.15a11.75 11.75 0 0 1 0-23.5h67.92l-2 1.37a12.37 12.37 0 0 0-5.37 10.38 12.85 12.85 0 0 0 5.39 10.4zm-67.79-22a10.25 10.25 0 0 0 0 20.5H77.6a14.19 14.19 0 0 1-4.4-10.25A13.91 13.91 0 0 1 77.53 3.9z"/><path d="M81.25 14.15a6.1 6.1 0 1 0 6.1-6.1 6.12 6.12 0 0 0-6.1 6.1zm9.7 0a3.69 3.69 0 0 1-3.7 3.7 3.7 3.7 0 0 1 0-7.4 3.69 3.69 0 0 1 3.7 3.7z"/><path d="M87.35 21a6.78 6.78 0 0 1-6.85-6.85 6.86 6.86 0 0 1 6.85-6.85 6.78 6.78 0 0 1 6.85 6.85A6.78 6.78 0 0 1 87.35 21zm0-12.2A5.36 5.36 0 0 0 82 14.15a5.35 5.35 0 1 0 5.35-5.35zm-.1 9.8a4.45 4.45 0 1 1 0-8.9 4.45 4.45 0 0 1 0 8.9zm0-7.4a2.95 2.95 0 1 0 0 5.9 2.95 2.95 0 0 0 0-5.9zM87.35 56.85a6.1 6.1 0 1 0-6.1-6.1 6.06 6.06 0 0 0 6.1 6.1zm0-9.8a3.69 3.69 0 0 1 3.7 3.7 3.63 3.63 0 0 1-3.7 3.7 3.69 3.69 0 0 1-3.7-3.7 3.76 3.76 0 0 1 3.7-3.7z"/><path d="M87.35 57.6a6.85 6.85 0 1 1 6.85-6.85 6.78 6.78 0 0 1-6.85 6.85zm0-12.2a5.35 5.35 0 1 0 5.35 5.35 5.29 5.29 0 0 0-5.35-5.35zm0 9.8a4.46 4.46 0 0 1-4.45-4.45 4.51 4.51 0 0 1 4.45-4.45 4.46 4.46 0 0 1 4.45 4.45 4.4 4.4 0 0 1-4.45 4.45zm0-7.4a3 3 0 0 0-2.95 2.95 3 3 0 0 0 2.95 3 2.89 2.89 0 0 0 3-3 3 3 0 0 0-3-2.95z"/></g></svg>