<svg xmlns="http://www.w3.org/2000/svg" viewBox="0 0 98.5 96.65"><defs><clipPath id="a"><path fill="none" d="M0 0h98.5v96.65H0z"/></clipPath></defs><title>selection-9</title><g clip-path="url(#a)" fill="#28245d" data-name="Layer 1"><path d="M97.2 94.15H75.3a6.31 6.31 0 0 0-6.1-5 4.92 4.92 0 0 0-2.1.4 6.26 6.26 0 0 0-6.2-5.4 4.92 4.92 0 0 0-2.1.4 6.38 6.38 0 0 0-3.4-4.7 4.09 4.09 0 0 0 .1-1.1 6.18 6.18 0 0 0-3.1-5.4 29.81 29.81 0 0 1 2.2-6.3 9.41 9.41 0 0 0 2.2 1.2 9.6 9.6 0 0 0 3.3.6 9.46 9.46 0 0 0 3.7-.8 9.33 9.33 0 0 0 5.2-6.4c2.1-7.4 10.9-9.3 11-9.4a1.22 1.22 0 0 0 0-2.4c-.5-.1-13.1-3.1-23.6 1.6-.1 0-.1.1-.2.1a11.33 11.33 0 0 0-3.2-7C42.6 34.25 26.5 32.05 25.8 32a1.21 1.21 0 0 0-1.3.8 1.28 1.28 0 0 0 .5 1.5c.1.1 9.9 6.5 8.9 16.5v.1a11 11 0 0 0 3.2 9.7 11.28 11.28 0 0 0 8 3.3 10.73 10.73 0 0 0 3.5-.6 32 32 0 0 1-.3 9.4 6.24 6.24 0 0 0-5.2 6.2v.5a6.27 6.27 0 0 0-5 5.3 7.79 7.79 0 0 0-2.1-.4 6.23 6.23 0 0 0-6.1 5 6.4 6.4 0 0 0-6.7 5h-22A1.22 1.22 0 0 0 0 95.45a1.29 1.29 0 0 0 1.2 1.2h23a1.22 1.22 0 0 0 1.2-1.2 3.8 3.8 0 0 1 3.8-3.8 7 7 0 0 1 1.3.2 1.32 1.32 0 0 0 1.2-.2 1.61 1.61 0 0 0 .5-1.1v-.2a3.8 3.8 0 0 1 3.8-3.8 3.57 3.57 0 0 1 2.7 1.2 1.21 1.21 0 0 0 1.5.2 1.24 1.24 0 0 0 .5-1.5 5 5 0 0 1-.2-1.2 3.71 3.71 0 0 1 3.8-3.7h.2a1.61 1.61 0 0 0 1.1-.5 1.28 1.28 0 0 0 .2-1.2 3 3 0 0 1-.2-1.3 3.8 3.8 0 0 1 3.8-3.8 2.93 2.93 0 0 1 1 .2l.6.3h.1a3.81 3.81 0 0 1 2.1 3.3 3.53 3.53 0 0 1-.3 1.4 1.7 1.7 0 0 0 0 1c.2.3.4.6.8.6a3.75 3.75 0 0 1 2.8 3.6 6 6 0 0 1-.2 1.2 1.24 1.24 0 0 0 .5 1.5 1.21 1.21 0 0 0 1.5-.2 4 4 0 0 1 2.7-1.2 3.8 3.8 0 0 1 3.8 3.8 6 6 0 0 1-.2 1.2 1.24 1.24 0 0 0 .5 1.5 1.21 1.21 0 0 0 1.5-.2 4 4 0 0 1 2.7-1.2 3.8 3.8 0 0 1 3.8 3.8 1.22 1.22 0 0 0 1.2 1.2h23a1.22 1.22 0 0 0 1.2-1.2 1.31 1.31 0 0 0-1.3-1.2m-39.8-40.4c6-2.7 13-2.6 17.4-2.2a15.38 15.38 0 0 0-8.2 9.3c0 .1 0 .1-.1.2a6.29 6.29 0 0 1-3.8 4.7 6.45 6.45 0 0 1-5.1.1 5.42 5.42 0 0 1-1.8-1.1 20.72 20.72 0 0 1 9.3-8 1.21 1.21 0 0 0-1-2.2 23.61 23.61 0 0 0-9.9 8.2c-.1-.1-.1-.2-.2-.3a7.6 7.6 0 0 1-.6-2.5 10.5 10.5 0 0 0 2.6-5.4 10 10 0 0 1 1.4-.8m-7 5.6a29.78 29.78 0 0 0-8.1-14.7 1.273 1.273 0 0 0-1.8 1.8 27.34 27.34 0 0 1 7.5 14.3 8.15 8.15 0 0 1-3.1.6 8.76 8.76 0 0 1-8.6-10.3v-.2c.6-6.9-3.1-12.3-6.2-15.4 5.5 1.4 14.6 4.5 21 10.9a8.69 8.69 0 0 1 0 12.4 4.35 4.35 0 0 1-.7.6m.8 9.1a36.71 36.71 0 0 0-.3-6.4c.1-.1.2-.1.3-.2a9.84 9.84 0 0 0 .5 1.6 9.5 9.5 0 0 0 1 1.7q-.9 1.8-1.5 3.3M49.2 30.65c5.7 0 9.2-2.9 9.2-7.6 0-11.8-7.9-22.2-8.3-22.6a1.34 1.34 0 0 0-2 0c-.3.4-8.3 10.9-8.3 22.6.2 4.6 3.7 7.6 9.4 7.6m0-27.4C51.3 6.45 56 14.45 56 23c0 4.6-4.7 5.1-6.8 5.1s-6.8-.5-6.8-5.1c0-8.5 4.7-16.5 6.8-19.7"/></g></svg>