<svg xmlns="http://www.w3.org/2000/svg" viewBox="0 0 23 23"><defs><clipPath id="a"><path fill="none" d="M0 0h23v23H0z"/></clipPath></defs><title>selection-12</title><g clip-path="url(#a)" data-name="Layer 1"><path d="M21.65 9.52a10.39 10.39 0 0 0-8.17-8.17A1.5 1.5 0 0 0 12 0h-1a1.5 1.5 0 0 0-1.48 1.35 10.39 10.39 0 0 0-8.17 8.17A1.5 1.5 0 0 0 0 11v1a1.5 1.5 0 0 0 1.35 1.49 10.39 10.39 0 0 0 8.17 8.17A1.5 1.5 0 0 0 11 23h1a1.5 1.5 0 0 0 1.48-1.35 10.39 10.39 0 0 0 8.17-8.17A1.5 1.5 0 0 0 23 12v-1a1.5 1.5 0 0 0-1.35-1.48M13.5 2.37a9.39 9.39 0 0 1 7.13 7.13h-3.49a6 6 0 0 0-3.64-3.64zm-3-.87A.5.5 0 0 1 11 1h1a.5.5 0 0 1 .5.5V6a.5.5 0 0 1-.5.5h-1a.5.5 0 0 1-.5-.5zm-1 .87v3.49A6 6 0 0 0 5.85 9.5H2.37A9.39 9.39 0 0 1 9.5 2.37M1 12v-1a.5.5 0 0 1 .5-.5H6a.5.5 0 0 1 .5.5v1a.5.5 0 0 1-.5.5H1.5A.5.5 0 0 1 1 12m8.5 8.63a9.39 9.39 0 0 1-7.13-7.13h3.48a6 6 0 0 0 3.65 3.64zm3 .87a.5.5 0 0 1-.5.5h-1a.5.5 0 0 1-.5-.5V17a.5.5 0 0 1 .5-.5h1a.5.5 0 0 1 .5.5zm.75-5.33A1.5 1.5 0 0 0 12 15.5h-1a1.5 1.5 0 0 0-1.25.68 5 5 0 0 1-2.92-2.92A1.5 1.5 0 0 0 7.5 12v-1a1.5 1.5 0 0 0-.68-1.25 5 5 0 0 1 2.93-2.92A1.5 1.5 0 0 0 11 7.5h1a1.5 1.5 0 0 0 1.25-.67 5 5 0 0 1 2.92 2.92A1.5 1.5 0 0 0 15.5 11v1a1.5 1.5 0 0 0 .67 1.25 5 5 0 0 1-2.92 2.92m.25 4.46v-3.49a6 6 0 0 0 3.64-3.64h3.49a9.39 9.39 0 0 1-7.13 7.13M22 12a.5.5 0 0 1-.5.5H17a.5.5 0 0 1-.5-.5v-1a.5.5 0 0 1 .5-.5h4.5a.5.5 0 0 1 .5.5z" fill="#28245d"/></g></svg>