<svg xmlns="http://www.w3.org/2000/svg" viewBox="0 0 62 62"><defs><clipPath id="a"><path fill="none" d="M0 0h62v62H0z"/></clipPath></defs><title>selection-10</title><g clip-path="url(#a)" fill="#28245d" data-name="Layer 1"><path d="M27 16h-2v-4H7v4H5a5 5 0 0 0-5 5v39h2v2h2v-2h24v2h2v-2h2V21a5 5 0 0 0-5-5M9 14h14v2H9zm21 44H2V21a3 3 0 0 1 3-3h22a3 3 0 0 1 3 3z"/><path d="M10 48a3 3 0 1 0 3 3 3 3 0 0 0-3-3m0 4a1 1 0 1 1 1-1 1 1 0 0 1-1 1M22 48a3 3 0 1 0 3 3 3 3 0 0 0-3-3m0 4a1 1 0 1 1 1-1 1 1 0 0 1-1 1M4 45h24V27H4zm8-9h-2v-2h2zm2 2v-6h-2v-3h8v5h-2v6h2v3h-8v-5zm6-2h2v2h-2zm6 7h-4v-3h2v-6h-2v-5h4zM6 29h4v3H8v6h2v5H6zM5 23h2v2H5zM15 23h2v2h-2zM25 23h2v2h-2zM20 23h2v2h-2zM10 23h2v2h-2zM34 38v2h5v20h-5v2h28V38zm7 2h12v20H41zm19 20h-5V40h5zM40 28h3v8h2v-8h4v8h2v-8h3v-4.81l7-18V0H33v5.19l7 18zm1.68-6L35.46 6h23.08l-6.22 16zM52 26H42v-2h10zm7-22H35V2h24z"/></g></svg>