<svg xmlns="http://www.w3.org/2000/svg" viewBox="0 0 60 51.69"><defs><clipPath id="a"><path fill="none" d="M0 0h60v51.69H0z"/></clipPath></defs><title>selection-4</title><g clip-path="url(#a)" fill="#28245d" data-name="Layer 1"><path d="M7 28.69h21l-3.45-15.43a2 2 0 0 0-2-1.56H9a2 2 0 0 0-2 2zm23.5 2H5v-17a4 4 0 0 1 4-4h13.59a4 4 0 0 1 3.91 3.13z"/><path d="M7 41.69h32.21a.45.45 0 0 0 .38-.21l3.57-10.14a.45.45 0 0 0-.4-.65H7zm32.21 2H5v-15h37.76A2.45 2.45 0 0 1 45 32.18l-3.6 10.16a2.44 2.44 0 0 1-2.19 1.35M12 17.69v5h8.68l-1.43-5zm8.67 7H12a2 2 0 0 1-2-2v-5a2 2 0 0 1 2-2h7.25a2 2 0 0 1 1.92 1.45l1.43 5a2 2 0 0 1-1.92 2.55"/><path d="M23 34.69H6a1 1 0 0 1 0-2h17a1 1 0 0 1 0 2M29 38.69H6a1 1 0 0 1 0-2h23a1 1 0 0 1 0 2M30.05 28.69h.49l22.09-23a2.19 2.19 0 0 0-.25-3.18 2.19 2.19 0 0 0-3 .23L29 24.11zm.91 2h-1.71a1 1 0 0 1-1-.78L27 24a1 1 0 0 1 .25-.91L47.93 1.34A4.19 4.19 0 1 1 54.08 7L31.69 30.39a1 1 0 0 1-.72.31M5 43.69a3 3 0 0 0 0 6h38a3 3 0 0 0 0-6zm38 8H5a5 5 0 1 1 0-10h38a5 5 0 0 1 0 10"/><path d="M15 46.69a1 1 0 1 1-1-1 1 1 0 0 1 1 1M20 46.69a1 1 0 1 1-1-1 1 1 0 0 1 1 1M25 46.69a1 1 0 1 1-1-1 1 1 0 0 1 1 1M30 46.69a1 1 0 1 1-1-1 1 1 0 0 1 1 1M35 46.69a1 1 0 1 1-1-1 1 1 0 0 1 1 1M14 9.69h4v-2a2 2 0 0 0-4 0zm6 2h-8v-4a4 4 0 0 1 8 0zM54 20.69a1 1 0 0 1-1-1v-14a1 1 0 0 1 2 0v14a1 1 0 0 1-1 1"/><path d="M58 28.7a1 1 0 0 1-.8-1.6 4 4 0 1 0-6.4 0 1 1 0 0 1-1.6 1.2 6 6 0 1 1 9.6 0 1 1 0 0 1-.8.4M5 43.69a3 3 0 1 0 3 3 3 3 0 0 0-3-3m0 8a5 5 0 1 1 5-5 5 5 0 0 1-5 5M43 43.69a3 3 0 1 0 3 3 3 3 0 0 0-3-3m0 8a5 5 0 1 1 5-5 5 5 0 0 1-5 5"/><path d="M51.82 36.84l3.85.77 2.22-2.22-.75-3-2.94-1.48L51.11 34zM56 39.69h-.2l-5-1a1 1 0 0 1-.77-.74l-1-4a1 1 0 0 1 .26-.95l4-4a1 1 0 0 1 1.15-.19l4 2a1 1 0 0 1 .52.65l1 4a1 1 0 0 1-.26.95l-3 3a1 1 0 0 1-.71.29"/></g></svg>