<svg xmlns="http://www.w3.org/2000/svg" viewBox="0 0 16.8 23.69"><defs><clipPath id="a"><path fill="none" d="M0 0h16.8v23.69H0z"/></clipPath></defs><title>selection-6</title><g clip-path="url(#a)" fill="#28245d" data-name="Layer 1"><path d="M8.4 11.91S6.31 15 6.31 16.15a2.09 2.09 0 1 0 4.19 0c0-1.16-2.09-4.24-2.09-4.24"/><path d="M16.72 10.5l-5.78-7.17a.4.4 0 0 0-.31-.15H9.2a1.39 1.39 0 0 0 .14-.6V1.4A1.4 1.4 0 0 0 7.94 0h-4.1a1.4 1.4 0 0 0-1.4 1.4v1.18a1.39 1.39 0 0 0 .14.6h-1A1.53 1.53 0 0 0 0 4.67V22.2a1.52 1.52 0 0 0 1.56 1.49h13.68a1.53 1.53 0 0 0 1.56-1.49V10.73a.4.4 0 0 0-.08-.23M.8 11.13H16V19H.8zM8.54 1.4v1.18a.6.6 0 0 1-.6.6h-.17V.8h.17a.6.6 0 0 1 .6.6m-4-.6h.56v2.38h-.59zM5.6.8h.59v2.38H5.6zm1.08 0h.59v2.38h-.59zM3.24 2.58V1.4a.6.6 0 0 1 .6-.6H4v2.38h-.16a.6.6 0 0 1-.6-.6M1.56 4h8.89l5.12 6.35H.8V4.67A.72.72 0 0 1 1.56 4m13.68 18.89H1.56a.73.73 0 0 1-.76-.69v-2.38H16v2.38a.72.72 0 0 1-.76.69"/></g></svg>