<svg xmlns="http://www.w3.org/2000/svg" viewBox="0 0 93.4 93.4"><defs><clipPath id="a"><path fill="none" d="M0 0h93.4v93.4H0z"/></clipPath></defs><title>selection-2</title><g clip-path="url(#a)" fill="#28245d" data-name="Layer 1"><path d="M91.9 0H1.3A2 2 0 0 0 0 1.4V92a2 2 0 0 0 1.4 1.4h90.4a2.34 2.34 0 0 0 1.6-1.6V1.4A2 2 0 0 0 91.9 0M16.5 65.2c-.1.8-.1 1.7-.2 2.5-.2 1.5-.3 2.9-.4 4.4 0 .5-.1.9-.1 1.4 0 .7-.1 1.5-.1 2.2l-.3 5.4c-.1 1.1-.2 2.3-.2 3.3 0 1.2-.1 2.3-.1 3.5 0 .5-.1 1-.1 1.5H3.8V3.7a4.65 4.65 0 0 0 2-.3h6.8c.4 0 .5.1.5.5 0 1 .2 2.1.3 3.1.1.8.1 1.5.2 2.2.2 1.6.3 3.1.4 4.7a10.87 10.87 0 0 1 .1 1.8c.1 1.9.1 3.7.1 5.5 0 1-.2 1.9-.2 2.9a.53.53 0 0 0 .6.6.53.53 0 0 0 .6-.6c.1-1.9.2-3.9.2-5.8 0-1.5-.1-3-.2-4.5-.1-1.2-.2-2.5-.3-3.7s-.3-2.2-.4-3.3-.2-2.1-.3-3.2h11.3c.1 1.3.3 2.6.4 3.9s.3 2.5.3 3.8c.1 2.2.1 4.5.1 6.7 0 1.3-.2 2.7-.3 4a37.83 37.83 0 0 1-1 5.7 31.4 31.4 0 0 1-2.2 5.8 25.39 25.39 0 0 0-2.2 6c-.6 2.4-1.1 4.7-1.6 7.1-.3 1.3-.5 2.7-.7 4.1-.1 1.2-.3 2.3-.5 3.5-.1.9-.2 1.7-.3 2.6a27 27 0 0 0-.4 2.8c-.1.7-.1 1.4-.2 2.1-.2 1.3-.3 2.3-.4 3.5m24-.8c-.2 1.4-.3 2.8-.4 4.2 0 .5-.1.9-.1 1.4-.1 1.2-.1 2.3-.2 3.5-.1 1.7-.2 3.3-.3 5-.1 1.2-.2 2.5-.2 3.7-.1 1.7-.1 3.5-.2 5.3 0 .7-.1 1.3-.1 2-3.2 0-6.4 0-9.6-.2v-.1c0-3.3-.1-6.7-.1-10 0-1.7.1-3.5.1-5.2 0-1 .1-2 .1-3 .1-1.3.1-2.7.2-4.1s.2-2.9.3-4.3c.1-1.6.3-3.3.5-4.9a31 31 0 0 1 1-5.3.75.75 0 0 0-.5-.8.51.51 0 0 0-.7.4c-.2.9-.4 1.9-.6 2.8-.2 1.3-.3 2.5-.5 3.7-.1.8-.1 1.5-.2 2.2-.2 1.4-.3 2.9-.4 4.3 0 .6-.1 1.1-.1 1.7 0 1.1-.1 2.1-.1 3.2s-.1 2.4-.1 3.6c0 .9-.1 1.9-.1 2.8-.1 3.5-.1 6.9-.1 10.4 0 .9.1 1.8.1 2.7H17c0-.4.1-.7.1-1.1v-.2c0-1.3.1-2.6.1-3.9s.1-2.9.2-4.3c.1-1.1.1-2.1.2-3.2.1-1.5.2-2.9.3-4.4.1-1.1.2-2.3.3-3.5.2-1.5.4-3.1.5-4.7.1-1.1.2-2.1.3-3.2s.3-2.4.4-3.6.3-2.1.4-3.2c.1-.9.3-1.9.4-2.8s.3-1.9.5-2.9c.2-1.4.5-2.8.8-4.2.6-2.2 1.1-4.4 1.8-6.6a27.49 27.49 0 0 1 1.5-3.6 32.8 32.8 0 0 0 2.4-7.5c.2-1.2.4-2.5.6-3.7a12.25 12.25 0 0 0 .2-1.9c.1-2.9.2-5.9.2-8.8a34.94 34.94 0 0 1-.1-4.6c-.1-.9-.2-1.9-.3-2.8-.1-.3-.1-.6-.2-1h21.3c.9 0 .9 0 1 .9l.3 3c.1 1.1.2 2.2.2 3.3.1 1.6.1 3.2.1 4.8-.1 1.3-.1 2.7-.3 4a41.66 41.66 0 0 1-2 9.3c-.5 1.1-1 2.3-1.5 3.4a28.64 28.64 0 0 0-2.1 5.8c-.6 2.2-1.1 4.4-1.6 6.7a35.45 35.45 0 0 0-.8 4.7c-.2 1.6-.5 3.3-.7 4.9-.2 1.2-.3 2.4-.4 3.6-.1 1.4-.3 2.7-.4 4-.1.9-.1 1.6-.2 2.3m27.8 9.5c-.2 1-.3 2.1-.4 3.1a54.8 54.8 0 0 0-.2 8.1c0 1.4.2 2.7.3 4.1v.4H46.5v-6.7c0-1 .1-2.1.1-3.2s.1-2.3.2-3.4a34 34 0 0 1 .9-6.4.63.63 0 0 0-.4-.8.62.62 0 0 0-.8.5l-.6 3.9c-.2 1.2-.2 2.4-.3 3.6-.1 1.5-.2 2.9-.2 4.4-.1 2.6-.1 5.2-.1 7.8v.3c-1.6 0-3.1 0-4.5.1 0-.6.1-1.1.1-1.7v-.3c0-1.4.1-2.9.1-4.3s.1-2.7.2-4.1c.1-1.1.1-2.2.2-3.3l.3-4.5c.1-1.1.2-2.3.3-3.5.2-1.6.4-3.2.5-4.8.1-.8.1-1.5.2-2.3.2-1 .3-2 .4-3l.3-2.7c.1-.9.2-1.7.3-2.5s.3-1.8.4-2.7c.2-1.3.3-2.6.6-3.8.5-2.3.9-4.6 1.5-6.9a29.7 29.7 0 0 1 2-5.7c.7-1.5 1.4-3.1 2-4.7a23.39 23.39 0 0 0 1.4-5.8c.1-1.2.3-2.5.4-3.7.1-1 .2-2 .2-3 .1-1.6.1-3.2.1-4.8s-.2-3.1-.3-4.7c-.1-.9-.3-1.9-.4-2.8v-.4h13.9c0 .6.1 1.2.1 1.8 0 1.2 0 2.5.1 3.7l.3 3.9c.1 1.7.3 3.3.5 5 .2 1.3.3 2.7.5 4 .2 1.5.4 2.9.7 4.4s.5 3.1.8 4.6.6 3.1.9 4.6c.2 1.1.4 2.3.6 3.5.1 1 .3 2 .4 3 .1.6.1 1.3.2 1.9.2 1.6.3 3.1.4 4.7v.4c0 2.2.1 4.4 0 6.6-.1 1.5-.3 3-.4 4.5-.1 1.1-.2 2.3-.4 3.4-.2 1.3-.4 2.6-.7 3.9-.4 2.1-.8 4.1-1.2 6.3m21.4 15.5h-6.8c0-.5-.1-.9-.1-1.4 0-.7-.1-1.4-.1-2.1-.1-2.9-.2-5.7-.2-8.6 0-1.4.1-2.9.2-4.3s.3-3 .5-4.5a40.38 40.38 0 0 1 1.5-6.9c.2-.5.4-1.1.6-1.6s-.1-1-.7-.9c-.2 0-.4.3-.5.5-.4 1.2-.8 2.4-1.1 3.6-.4 1.7-.7 3.4-1 5.1-.2 1-.2 2-.3 3l-.3 5.1c-.1 2-.1 3.9-.1 5.9 0 1.5.1 2.9.2 4.4a24.52 24.52 0 0 0 .2 2.7H70.1a21.05 21.05 0 0 1-.2-2.5c-.1-2.5-.2-5-.2-7.5a23.84 23.84 0 0 1 .4-4.6c.4-2.6 1-5.2 1.5-7.8.3-1.3.4-2.7.6-4 .2-1.5.4-3 .5-4.6s.2-2.9.2-4.4.1-3.1 0-4.6-.3-3.3-.4-4.9c-.1-.9-.2-1.9-.3-2.9s-.3-2.2-.5-3.3-.4-2.5-.7-3.8c-.4-1.5-.7-3.1-1-4.6-.3-1.3-.5-2.6-.7-3.9-.2-1-.3-2.1-.5-3.2s-.3-2-.4-3A27 27 0 0 1 68 17c-.1-.8-.1-1.5-.2-2.2-.2-1.3-.3-2.7-.4-4 0-.5-.1-1.1-.1-1.6 0-1-.1-2-.1-3V3.7c3.4 0 6.8 0 10.4-.1 0 .7-.1 1.3-.1 2a.37.37 0 0 0-.1.3c0 .9-.1 1.8-.1 2.7-.1 2.6-.1 5.1-.2 7.6 0 1.1-.1 2.1-.1 3.2 0 1.5.1 3.1.1 4.6.1 1.3.1 2.6.2 3.9.1 1.5.2 3 .4 4.5a60.63 60.63 0 0 0 1.8 10.5 4.92 4.92 0 0 0 .6 1.7.93.93 0 0 0 1.2.3.85.85 0 0 0 .5-1.1c-.5-2.1-1.1-4.2-1.5-6.3a41.28 41.28 0 0 1-.7-4.9l-.3-3-.3-5.1c0-.9-.1-1.7-.1-2.5 0-1.4-.1-2.8-.1-4.2 0-1.8.1-3.6.1-5.4.1-1.5.1-3 .2-4.5.1-1.3.2-2.7.4-4.2h10.2z"/><path d="M66.8 47c-.2-1.4-.3-2.9-.6-4.4a36.41 36.41 0 0 0-1.9-7.2 11.83 11.83 0 0 0-2.8-4.4 3 3 0 0 0-2.2-1 3.66 3.66 0 0 0-3.1 1.4 10.07 10.07 0 0 0-2 3.3 32.08 32.08 0 0 0-2.1 7.5c-.3 2.2-.6 4.5-.8 6.8a38.73 38.73 0 0 0-.2 4.8v3.8a39.46 39.46 0 0 0 .4 4.3c.1 1.4.3 2.9.5 4.3a39.52 39.52 0 0 0 1.6 6.6 12.11 12.11 0 0 0 3.2 5.6 3.33 3.33 0 0 0 4.2.4 6.66 6.66 0 0 0 2.5-3 30.31 30.31 0 0 0 1.6-4.2 45.37 45.37 0 0 0 1.2-5.3 27.19 27.19 0 0 0 .5-4 31.28 31.28 0 0 0 .4-4.4c0-2.3 0-4.7-.1-7-.1-1.3-.2-2.7-.3-3.9M65 62.2c-.2 1.4-.3 2.9-.6 4.3s-.6 2.9-1 4.3a16.08 16.08 0 0 1-1.7 4.3 9 9 0 0 1-1.5 1.9 1.34 1.34 0 0 1-2 0 8.62 8.62 0 0 1-1.4-1.8 22.65 22.65 0 0 1-2.4-7.2c-.3-1.8-.6-3.5-.8-5.3a18.32 18.32 0 0 1-.3-3.3c-.1-2-.2-4-.2-6 0-1.4.1-2.8.2-4.2.2-2.1.4-4.1.7-6.1a36.41 36.41 0 0 1 1.9-7.2 8.62 8.62 0 0 1 2-3.3c1-.9 1.7-.8 2.5 0a8.39 8.39 0 0 1 1.8 2.8 33.76 33.76 0 0 1 1.3 4.2c.3 1.3.6 2.6.8 3.9.2 1.1.4 2.1.5 3.2.1.8.1 1.5.2 2.3a26.09 26.09 0 0 1 .2 2.8v2.8a24.58 24.58 0 0 0 .2 2.8c-.1 1.6-.2 3.2-.4 4.8"/><path d="M63.5 51.2a33.21 33.21 0 0 0-.6-4.4 10.94 10.94 0 0 0-1.9-4.9 2.17 2.17 0 0 0-3.4-.3 7.83 7.83 0 0 0-1.6 2.8 27.57 27.57 0 0 0-1.4 7.6c-.1 1.3 0 2.6 0 3.9 0 1.1.1 2.1.2 3.2l.6 3.6a11.24 11.24 0 0 0 1.8 4.7c.9 1.2 2.3 1.6 3.5.4a7.21 7.21 0 0 0 1.5-2.7 23.54 23.54 0 0 0 1.4-7c.1-1.1 0-2.2 0-3.3s0-2.4-.1-3.6m-1.1 6.9A31.34 31.34 0 0 1 61 65a5.72 5.72 0 0 1-1.3 2.1c-.5.4-.8.6-1.3 0a9.41 9.41 0 0 1-1.2-2.2 18.65 18.65 0 0 1-1.1-5.1c-.1-1.3-.3-2.6-.3-3.9a21.86 21.86 0 0 1 0-3.6 26.91 26.91 0 0 1 1.4-7.5 6.11 6.11 0 0 1 1.3-2.2c.4-.5.9-.5 1.4.1a7.37 7.37 0 0 1 1.4 2.8 35.6 35.6 0 0 1 .8 3.5 8.75 8.75 0 0 1 .2 1.6c.1 1.4.1 2.8.2 4.2h-.1c0 .9.1 2.1 0 3.3"/></g></svg>