<svg xmlns="http://www.w3.org/2000/svg" viewBox="0 0 121.15 104.33"><defs><clipPath id="a"><path fill="none" d="M0 0h121.15v104.33H0z"/></clipPath></defs><title>logo</title><g clip-path="url(#a)" data-name="Layer 1"><path d="M17.31 69.23V68.1l.23-.49 5.15 1.21-.18.42zm6.08 0l.1-.23 1 .23zm43-65.83a16.18 16.18 0 0 1 4.27 2.53l-.07.16-4.83-1.29zm-5.64-1.74a36 36 0 0 1 4.47 1.28l-.68 1.53L60 3.27zm-5.82-1q2.24.27 4.22.65l-.67 1.53-4.05-1.06zM48.86.15q2 .11 3.76.28l-.34.78L48.8.27zm22.24 7l1 .21A7.49 7.49 0 0 1 73.57 11c0 .3.07.59.08.88l-4.16-1.13zm-5.86-1.21L70.19 7l-1.55 3.5-4.86-1.32zm-5.86-1.26l4.63 1-1.41 3.18L58 7.62zm-5.72-1.23l4.17.9-1.26 2.87-4.13-1.13zM47.9 2.22l3.6.77-1.12 2.54-3.57-1zM42.15 1l3 .65-1 2.22L41.2 3zm-6-1h1.37l1.2.26-.82 1.89-2.4-.66zm-5.7 0h1.39l-.19.45-1.21-.34zm38.62 11.67l4.58 1a8.44 8.44 0 0 1-1 3.67L67.56 15zm-5.83-1.29l5 1.1-1.46 3.29-4.9-1.32zm-5.86-1.3l4.67 1-1.34 3-4.6-1.24zm-5.73-1.26l4.25.94-1.21 2.75-4.21-1.14zm-5.76-1.28l3.69.82-1.08 2.48-3.68-1zm-5.74-1.26l3.16.7-1 2.2-3.11-.85zM34.34 4l2.57.57-.84 1.92-2.57-.7zm-5.17-1.15l1.35.3-.71 1.64-1.37-.37zm-5.52-1.22l.75.17-.58 1.38-.74-.18zM67.09 16l5.08 1.09a14.75 14.75 0 0 1-3.3 3.42l-3.41-.93zm-5.84-1.25l5 1.08-1.55 3.57-4.93-1.34zm-5.88-1.26l4.73 1-1.44 3.24L54 16.5zm-5.77-1.22l4.34.93-1.28 2.93-4.3-1.13zM43.81 11l3.81.82-1.14 2.6-3.78-1zM38 9.79l3.31.71-1 2.28-3.29-.9zm-5.78-1.25l2.71.58-.85 2-2.7-.73zM27 7.43l1.5.32-.71 1.63L26.32 9zm-5.34-1.16l.77.17-.56 1.32-.76-.21zM65 20.57l2.93.65a42 42 0 0 1-4.45 2.69zm-5.82-1.29l5 1.11-1.49 3.37-5-1.33zM53.33 18l4.76 1-1.38 3.12L52 20.91zm-5.78-1.28l4.42 1-1.26 2.87-4.39-1.17zm-5.79-1.28l3.91.86-1.15 2.62-3.9-1zM36 14.16l3.42.76-1 2.36-3.42-.92zm-5.8-1.29l2.8.63-.91 2.1-2.83-.76zM25 11.73l1.62.36-.8 1.84-1.65-.44zm-5.2-1.15l.79.17-.68 1.6-.78-.21zm37.5 12.93l4.91 1.09c-1.7.87-3.51 1.73-5.36 2.6l-1.09-.29zm-5.89-1.3l4.81 1.06-1.49 3.36L50 25.36zm-5.8-1.28l4.5 1L48.75 25l-4.47-1.19zm-5.81-1.28l4 .89-1.25 2.86-4-1.07zM34 18.37l3.55.78-1.13 2.61-3.56-.95zm-5.81-1.29l2.95.65-1 2.34-3-.79zm-5.17-1.14l1.75.39-.9 2.08-1.78-.47zm-5.75.71v-.19l.7-1.63.8.18-.77 1.83zm38.1 11.13h.17l-.24.12zm-5.9-1.3l4.85 1.07-.48 1.08c-1.27.61-2.48 1.22-3.61 1.83l-2.29-.61zm-5.82-1.29l4.58 1-1.47 3.34-4.56-1.22zm-5.82-1.29l4.12.91-1.35 3.09-4.11-1.1zm-5.76-1.28l3.67.81-1.23 2.83-3.68-1zm-5.81-1.28l3.07.68-1.13 2.57-3.09-.82zm-5.18-1.14l1.88.41-1 2.31-1.96-.51zm26.41 10.65l1.47.32c-.81.47-1.57.94-2.26 1.42zm-5.84-1.29l4.67 1-1.45 3.29-4.64-1.24zm-5.85-1.29l4.2.93-1.33 3-4.22-1.12zM30 27l3.8.84-1.21 2.79-3.81-1zm-5.82-1.29l3.2.71-1.1 2.52-3.21-.86zM19 24.56l2 .44-1 2.26-2-.54zm20.7 9.22l4.45 1A9.87 9.87 0 0 0 42 38.19l-3.85-1zm-5.86-1.29l4.32 1-1.46 3.34-4.32-1.15zm-5.78-1.28l3.92.87-1.34 3.08-3.94-1.05zm-5.82-1.29l3.33.74-1.23 2.82-3.34-.9zm-4.93 1.68v-2.77l1.91.42-1.11 2.56zm20.33 6.66l4.08.9a8.11 8.11 0 0 0-.19 1.74v.58l-.6 1.35-4.81-1.28zM31.76 37l4.43 1-1.42 3.2-4.42-1.2zM26 35.68l4.06.9-1.3 3-4.1-1.08zm-5.84-1.28l3.46.76-1.2 2.74L19 37zM41.49 44v4l-1.62-.43zm-5.91-1.31l4.92 1.09-1.5 3.51L34.08 46zm-5.89-1.3l4.54 1-1.41 3.22-4.53-1.21zm-5.8-1.28l4.19.93-1.29 3-4.19-1.12zm-6.58 1.36v-1l.77-1.65 3.59.79-1.17 2.7zm22.2 6.89l2 .45v4.07L37.9 52zm-5.94-1.31l5 1.11L37 51.72l-5-1.33zm-5.91-1.31l4.65 1-1.43 3.27-4.64-1.24zm-5.8-1.28l4.31 1-1.31 3-4.32-1.15zm-4.56 2v-3l2.45.54-1.2 2.76zm20.2 6.36l4 .92v2.71l-.5 1.27-5.07-1.35zm-5.94-1.35l5.08 1.16-1.55 3.53L30 54.8zm-5.91-1.35l4.75 1.08-1.45 3.31-4.75-1.26zm-5.8-1.32l4.43 1-1.35 3.1-4.43-1.18zm-2.55.88v-1.46l.58.13zm24.12 8.94h.1v4.14l-1.77-.46zm-5.95-1.35l5.16 1.17L39 62.12l-5.13-1.33zm-6-1.36l5.16 1.17-1.49 3.52L28 59.25zm-5.92-1.35l4.85 1.1L27 59l-4.86-1.27zm-6.28 1.91v-2.2l.48-1 4.56 1L21 57.43zm22.11 6.6l2.11.48v4.23l-3.79-1zm-6-1.36l5.2 1.19L37 66.61l-5.17-1.35zm-6-1.37l5.25 1.2-1.55 3.54-5.15-1.38zM21.54 59l5 1.13L25 63.47l-5-1.3zm-4.23 2.47V58l3.11.71L19 61.9zm0 4.44v-3.2l1.25.29zM23 68.08l-5.07-1.33 1.63-3.51 5 1.19zm4.39 1.15l-3.58-.94 1.68-3.66 5.32 1.25-1.47 3.34zm2.65 0L31.49 66l5.24 1.23-.86 1.95zm6.59 0l.81-1.78 4.09 1v.82z" fill="#bfa159" fill-rule="evenodd"/><path d="M73 52.38L70 52v-1.28h3zm0-3.12l-3 .15v-2.54l3 .1zm0-4.34l-3 .16v-2.39l3 .05zm0-4.34l-3 .16v-2.39l3 .16zm0-4.23l-3 .1V34l3 .1zM73 32l-3 .16v-2.48l3 .16zm0-4.29l-3 .16v-2.48l3 .16zm0-4.28l-3 .1v-2.37l3 .15zm0-3.53h-1.93L73 18.18zm-5.3 30.86v.87l-3.95-.87zm0-4v2.76l-3.89.17v-3zm0-4.17l-.06 2.6-3.84.17v-2.94zm0-4.34v2.6l-3.91.15v-2.92zm-.06-4.34l.06 2.66-3.89.16v-3zm.06-4.34v2.66l-3.89.17v-3zm0-4.28v2.66l-3.89.16v-3zm-2-1.63l2-1.14v1.08zm-3.5 26.09l-2 .11a11.34 11.34 0 0 1-2.48-.65v-2.77l4.51.16zm0-7.38v3l-4.51.22V42.2zm0-4.39v3.09l-4.51.22v-3.53zm0-1.19l-4.51.16v-3.48l4.51.16zm0-7.43v3.14l-4.51.22v-3.59zm0-1.14l-5.92.11 5.92-2.76zm-5.46 18.16v2.49a30.63 30.63 0 0 1-5-2v-.71zm0-4.23v3.47l-5 .22V42.1zm0-.81h-5v-3.53h5zm0-7.75V37l-5 .22-.06-3.8zm0-.81l-5 .27v-2.4l2.93-1.52 2.09.05zm-5.64 14l-1.1-.62 1.13.05zm0-4.66v3.63l-1.81.06A23.16 23.16 0 0 1 45.74 43v-1.07zm0-.7l-5.36.11v-3.94l5.36.16zm-5.76 1.19c-2.65-2.49-2.48-5.2 0-7.54zm5.76-9.16v3.69l-5.36.22v-2.6a6.68 6.68 0 0 1 .9-.82l.85-.6zm0-.7l-3.1.1A16.45 16.45 0 0 1 51.1 31z" fill="#9c9c9c"/><path d="M80.86 69.23l.12-.28.71.16.39.13zm-20.56-.35l-.11.35h-2.68l.36-.78zm18.79-.27l-.3.62H75l.67-1.43zm-24.6-.87l-.62 1.47-1.81-.7.56-1.19zm19-.43l-.87 1.92h-2.18l-1.12-.35 1-2.29 2.17.48zm-24.82-.81l-.51 1-1.16-.41.45-.92zm19.13-.38l-1 2.06-2.76-.76.9-2zm17.45 2.5l-3.68-1L82.75 65l3.73.86zM62.1 64.87l-.79 1.84L59 66l.68-1.57zm18.73-.27l-1.07 2.53-3.41-.92 1.06-2.4 3.2.74zm-24.49-.87l-.62 1.41-1.86-.59.62-1.41zm19-.38l-1 2.28-3.14-.85 1-2.19zm-24.77-1l-.45 1-1.28-.35.45-.92zm19.13-.32l-1 2.17-2.76-.76.9-2.06zm-25.16-.76l-.17.38-.45-.17.17-.27zm-1.92 4.07l-.11.27-.28-.11.11-.27zm44.48-.73l-3.67-1L84.59 61l3.71.86zM64 60.8l-.84 1.84L60.8 62l.73-1.68zm18.73-.22l-1.16 2.55-3.39-.92 1.08-2.44 3.29.76zm-24.53-.92l-.68 1.41-1.86-.54.56-1.25zm18.95-.37l-1.09 2.36-3.12-.84 1-2.24L76 59zm-24.82-.88l-.45 1-1.24-.41.4-.92zM71.47 58l-1 2.11-2.82-.76 1-2.06zm-25.22-.38l-.62-.22.17-.38.68.11zm1.86-4l-.79-.27.17-.38.9.11zm1.92-4l-1-.33.23-.49 1.07.16zM88.88 60.6l-1.07-.28-2.58-.76L86.45 57l3.71.84zm-23.06-3.81L65 58.64 62.55 58l.79-1.79zm18.68-.22l-1.13 2.55-3.39-1 1.07-2.42.68.16zm-24.43-.92l-.68 1.41-1.92-.49.68-1.46zM79 55.26l-1.1 2.45h-.07l-3.09-.85 1.07-2.32zm-24.81-.9l-.45 1-1.29-.36.39-.87zm1.86-4.12l-.51 1.14-1.29-.38.45-1zm17.27 3.69l-1 2.22-2.82-.82.9-2zm-5.64-1.14l-.9 1.84-2.43-.63.85-1.79zM62 51.48L61.25 53l-1.92-.6L60 51zm25.58 2.88l4 .32-.88 1.95-3.71-1zm-5.66-.54l3.64.36-.43 1-3.39-.92zM103.85 60l-1-.26 1-2.33zm-5.06-4.54l4.22.89-1.34 3.09-4.21-1.07zm-5.53-.7l3.21.21 1 .22-1.26 2.91-4-1zm5.54 13.98l2.14.49h-2.37zm1.79-4l3.26.76v3l-.28.63-4.39-1.19zm1.85-4.14l1.41.32v3.62l-2.85-.75zm-9.11 6.88l4.44 1-.32.73h-4.92zm1.82-4l4.35 1-1.36 3.14-4.35-1.17zM97 59.36l4.28 1-1.37 3.17-4.28-1.12zm-8.93 6.91l4.05.94-.9 2H87.5l-.66-.18zm1.81-4l4 .94-1.31 2.94-4-1.08zm1.85-4.1l4 .92-1.33 3-4-1zm9.08-3.17l2.64.12-.21.48zm-23-1.68l2 .24-.15.32-.48-.12z" fill="#bfa159"/><path fill="#9c9c9c" d="M0 75.29h121.15v2.6H0z"/><path d="M35.14 85.08A4.64 4.64 0 0 0 31 87.26c-1.19 1.83-1.45 4.46-1.45 6.59a15.75 15.75 0 0 0 .67 4.91 6 6 0 0 0 1.92 2.93 5 5 0 0 0 3.12 1 4.93 4.93 0 0 0 3.08-1 6 6 0 0 0 1.93-2.93 15.64 15.64 0 0 0 .67-4.91c0-2.13-.26-4.77-1.47-6.6a4.84 4.84 0 0 0-4.31-2.18m-.05-1.68a9.36 9.36 0 0 1 5.12 1.38 8.89 8.89 0 0 1 3.3 3.79A13.12 13.12 0 0 1 44 98a10 10 0 0 1-1.91 3.32 9 9 0 0 1-2.89 2.2 9.12 9.12 0 0 1-3.93.79 10.34 10.34 0 0 1-3.16-.45 7.93 7.93 0 0 1-2.7-1.56 9.51 9.51 0 0 1-1.95-2.3 10.63 10.63 0 0 1-1.22-2.89 13.21 13.21 0 0 1-.41-3.32A12.29 12.29 0 0 1 27 88.5a8.69 8.69 0 0 1 8.13-5.1M54.71 95.94l-4-2a11.57 11.57 0 0 1-2-1.29A5 5 0 0 1 47.4 91a4.8 4.8 0 0 1-.48-2.19 5 5 0 0 1 .8-2.76 5.42 5.42 0 0 1 2.29-2 8 8 0 0 1 3.49-.71 14.12 14.12 0 0 1 5.92 1.38h.1l.25 5.81h-1.65v-.16a6.57 6.57 0 0 0-1.54-4 4.22 4.22 0 0 0-3.23-1.42 4 4 0 0 0-1.71.35 2.73 2.73 0 0 0-1.15 1 2.61 2.61 0 0 0-.42 1.47 2.68 2.68 0 0 0 .58 1.74A5.73 5.73 0 0 0 52.53 91l3.77 1.86a13 13 0 0 1 2.31 1.41A5.38 5.38 0 0 1 60.08 96a5.09 5.09 0 0 1 .52 2.36 5.5 5.5 0 0 1-.53 2.41 5.6 5.6 0 0 1-1.51 1.91 6.93 6.93 0 0 1-2.26 1.22 8.81 8.81 0 0 1-2.75.42 14.35 14.35 0 0 1-2.23-.18 16.28 16.28 0 0 1-2.23-.51 13.45 13.45 0 0 1-2.07-.82h-.09l-.37-6.38h1.65v.14a21.81 21.81 0 0 0 .55 2.6 5.27 5.27 0 0 0 .88 1.74 4.5 4.5 0 0 0 3.77 1.79 4.43 4.43 0 0 0 2-.45 3.46 3.46 0 0 0 1.43-1.25 3.07 3.07 0 0 0 .49-1.69 2.86 2.86 0 0 0-.63-1.87 6.12 6.12 0 0 0-2-1.49M70.62 95.94l-4-2a11.53 11.53 0 0 1-2-1.29A4.94 4.94 0 0 1 63.31 91a4.8 4.8 0 0 1-.48-2.19 5 5 0 0 1 .8-2.76 5.42 5.42 0 0 1 2.29-2 8 8 0 0 1 3.49-.71 14.13 14.13 0 0 1 5.92 1.38h.1l.25 5.81H74v-.16a6.57 6.57 0 0 0-1.54-4 4.22 4.22 0 0 0-3.23-1.42 4 4 0 0 0-1.71.35 2.74 2.74 0 0 0-1.15 1 2.62 2.62 0 0 0-.37 1.58 2.68 2.68 0 0 0 .58 1.74A5.73 5.73 0 0 0 68.44 91l3.77 1.86a13 13 0 0 1 2.31 1.41A5.37 5.37 0 0 1 76 96a5.09 5.09 0 0 1 .52 2.36 5.5 5.5 0 0 1-.53 2.41 5.58 5.58 0 0 1-1.51 1.91 6.92 6.92 0 0 1-2.26 1.22 8.81 8.81 0 0 1-2.75.42 14.38 14.38 0 0 1-2.23-.18 16.3 16.3 0 0 1-2.23-.51 13.45 13.45 0 0 1-2.07-.82h-.09l-.37-6.38h1.65v.14a21.81 21.81 0 0 0 .55 2.6 5.27 5.27 0 0 0 .88 1.74 4.5 4.5 0 0 0 3.77 1.79 4.43 4.43 0 0 0 2-.45 3.46 3.46 0 0 0 1.41-1.25 3.07 3.07 0 0 0 .5-1.69 2.86 2.86 0 0 0-.64-1.87 6.12 6.12 0 0 0-2-1.49M83.62 92.78h1.26a2.77 2.77 0 0 0 2.24-.84 4.6 4.6 0 0 0 .72-2.69v-.17h1.56v9.26h-1.55v-.59c0-2.09-.8-3.44-3-3.44h-1.23V101a2.41 2.41 0 0 0 .18 1.06c.14.22.48.26.71.26h3.11a5.63 5.63 0 0 0 2.88-.67 4.57 4.57 0 0 0 1.77-2 11.38 11.38 0 0 0 1-3.28v-.14h1.52l-.39 7.6H77.65v-1.54h1.95c.64 0 .79-.49.79-1.06V86.47c0-.57-.14-1.06-.79-1.06h-1.95v-1.53h16.11l.41 7h-1.52v-.14a11.89 11.89 0 0 0-.89-3.14 3.72 3.72 0 0 0-1.5-1.6 4.84 4.84 0 0 0-2.4-.54h-3.32c-.23 0-.64 0-.76.26a2.55 2.55 0 0 0-.16 1zM96.67 83.88h16.74l.44 7.78h-1.53v-.15a15.05 15.05 0 0 0-.83-3.41 4.52 4.52 0 0 0-1.44-2 3.7 3.7 0 0 0-2.27-.67 1.33 1.33 0 0 0-.88.23 1.75 1.75 0 0 0-.22 1v14.58c0 .56.14 1.06.78 1.06h2.2v1.54h-9.19v-1.54h2.19c.64 0 .78-.49.78-1.06V86.57a1.84 1.84 0 0 0-.18-.92c-.14-.2-.64-.22-.85-.22A3.69 3.69 0 0 0 99.32 87a9.32 9.32 0 0 0-1.52 4.55v.15h-1.57zM13.27 93.15h2.57a7.21 7.21 0 0 0 2.51-.37 2.57 2.57 0 0 0 1.39-1.21 5.14 5.14 0 0 0 .47-2.36 4 4 0 0 0-.94-2.88 4.35 4.35 0 0 0-3-.9h-2a1.08 1.08 0 0 0-.79.23 1.7 1.7 0 0 0-.21 1zm0 1.54v6.57c0 .56.14 1.06.78 1.06h2v1.54H7.3v-1.54h1.94c.65 0 .79-.49.79-1.06V86.47c0-.57-.14-1.06-.79-1.06H7.3v-1.53h9.52a10.7 10.7 0 0 1 3 .39A6.14 6.14 0 0 1 22 85.39a4.66 4.66 0 0 1 1.31 1.72 5.36 5.36 0 0 1 .43 2.17 4.59 4.59 0 0 1-1.31 3.3 6.27 6.27 0 0 1-3.24 1.65 2.35 2.35 0 0 1 .65.52 10.06 10.06 0 0 1 1 1.69l2.26 4.25A5.69 5.69 0 0 0 24 102a1.1 1.1 0 0 0 .82.35h.95v1.54h-4.46l-3.69-7.19a4.2 4.2 0 0 0-1.22-1.58 3.21 3.21 0 0 0-1.71-.4z" fill="#9c9c9c" fill-rule="evenodd"/></g></svg>